<?xml version="1.0" encoding="utf-8" standalone="no"?>
<!DOCTYPE svg PUBLIC "-//W3C//DTD SVG 1.1//EN"
  "http://www.w3.org/Graphics/SVG/1.1/DTD/svg11.dtd">
<svg xmlns:xlink="http://www.w3.org/1999/xlink" width="856.155pt" height="603.981562pt" viewBox="0 0 856.155 603.981562" xmlns="http://www.w3.org/2000/svg" version="1.1">
 <metadata>
  <rdf:RDF xmlns:dc="http://purl.org/dc/elements/1.1/" xmlns:cc="http://creativecommons.org/ns#" xmlns:rdf="http://www.w3.org/1999/02/22-rdf-syntax-ns#">
   <cc:Work>
    <dc:type rdf:resource="http://purl.org/dc/dcmitype/StillImage"/>
    <dc:date>2026-10-02T03:44:14.667026</dc:date>
    <dc:format>image/svg+xml</dc:format>
    <dc:creator>
     <cc:Agent>
      <dc:title>Matplotlib v3.6.3, https://matplotlib.org/</dc:title>
     </cc:Agent>
    </dc:creator>
   </cc:Work>
  </rdf:RDF>
 </metadata>
 <defs>
  <style type="text/css">*{stroke-linejoin: round; stroke-linecap: butt}</style>
 </defs>
 <g id="figure_1">
  <g id="patch_1">
   <path d="M 0 603.981562 
L 856.155 603.981562 
L 856.155 0 
L 0 0 
z
" style="fill: #ffffff"/>
  </g>
  <g id="axes_1">
   <g id="patch_2">
    <path d="M 42.35 275.2 
L 414.03 275.2 
L 414.03 62.88 
L 42.35 62.88 
z
" style="fill: #ffffff"/>
   </g>
   <g id="patch_3">
    <path d="M 42.35 275.2 
L 42.35 275.2 
L 46.0668 275.2 
L 46.0668 275.2 
L 49.7836 275.2 
L 49.7836 265.14087 
L 60.934 265.14087 
L 60.934 229.032275 
L 72.0844 229.032275 
L 72.0844 92.824191 
L 79.518 92.824191 
L 79.518 92.309976 
L 98.102 92.309976 
L 98.102 194.065861 
L 116.686 194.065861 
L 116.686 231.500297 
L 135.27 231.500297 
L 135.27 253.304745 
L 153.854 253.304745 
L 153.854 241.105096 
L 191.022 241.105096 
L 191.022 270.121463 
L 228.19 270.121463 
L 228.19 275.2 
L 321.11 275.2 
L 321.11 275.2 
L 414.03 275.2 
L 414.03 275.2 
" clip-path="url(#p1cefdaf8b0)" style="fill: none; stroke: #1f77b4; stroke-width: 1.8; stroke-linejoin: miter"/>
   </g>
   <g id="patch_4">
    <path d="M 42.35 275.2 
L 42.35 275.2 
L 46.0668 275.2 
L 46.0668 275.2 
L 49.7836 275.2 
L 49.7836 263.041443 
L 60.934 263.041443 
L 60.934 231.18248 
L 72.0844 231.18248 
L 72.0844 89.727278 
L 79.518 89.727278 
L 79.518 72.990476 
L 98.102 72.990476 
L 98.102 191.117579 
L 116.686 191.117579 
L 116.686 234.37576 
L 135.27 234.37576 
L 135.27 245.087069 
L 153.854 245.087069 
L 153.854 249.187871 
L 191.022 249.187871 
L 191.022 270.129659 
L 228.19 270.129659 
L 228.19 235.242996 
L 321.11 235.242996 
L 321.11 275.2 
L 414.03 275.2 
L 414.03 275.2 
" clip-path="url(#p1cefdaf8b0)" style="fill: none; stroke-dasharray: 6.66,2.88; stroke-dashoffset: 0; stroke: #ff7f0e; stroke-width: 1.8; stroke-linejoin: miter"/>
   </g>
   <g id="patch_5">
    <path d="M 79.518 275.2 
L 79.518 62.88 
L 116.686 62.88 
L 116.686 275.2 
z
" clip-path="url(#p1cefdaf8b0)" style="fill: #f6b54c; opacity: 0.2; stroke: #f6b54c; stroke-linejoin: miter"/>
   </g>
   <g id="matplotlib.axis_1">
    <g id="xtick_1">
     <g id="line2d_1">
      <path d="M 42.35 275.2 
L 42.35 62.88 
" clip-path="url(#p1cefdaf8b0)" style="fill: none; stroke: #b0b0b0; stroke-opacity: 0.2; stroke-width: 0.8; stroke-linecap: square"/>
     </g>
     <g id="line2d_2">
      <defs>
       <path id="m8d95c9955d" d="M 0 0 
L 0 3.5 
" style="stroke: #000000; stroke-width: 0.8"/>
      </defs>
      <g>
       <use xlink:href="#m8d95c9955d" x="42.35" y="275.2" style="stroke: #000000; stroke-width: 0.8"/>
      </g>
     </g>
     <g id="text_1">
      <text style="font: 10px 'Noto Sans CJK JP'; text-anchor: middle" x="42.35" y="290.159375" transform="rotate(-0 42.35 290.159375)">0</text>
     </g>
    </g>
    <g id="xtick_2">
     <g id="line2d_3">
      <path d="M 116.686 275.2 
L 116.686 62.88 
" clip-path="url(#p1cefdaf8b0)" style="fill: none; stroke: #b0b0b0; stroke-opacity: 0.2; stroke-width: 0.8; stroke-linecap: square"/>
     </g>
     <g id="line2d_4">
      <g>
       <use xlink:href="#m8d95c9955d" x="116.686" y="275.2" style="stroke: #000000; stroke-width: 0.8"/>
      </g>
     </g>
     <g id="text_2">
      <text style="font: 10px 'Noto Sans CJK JP'; text-anchor: middle" x="116.686" y="290.159375" transform="rotate(-0 116.686 290.159375)">20</text>
     </g>
    </g>
    <g id="xtick_3">
     <g id="line2d_5">
      <path d="M 191.022 275.2 
L 191.022 62.88 
" clip-path="url(#p1cefdaf8b0)" style="fill: none; stroke: #b0b0b0; stroke-opacity: 0.2; stroke-width: 0.8; stroke-linecap: square"/>
     </g>
     <g id="line2d_6">
      <g>
       <use xlink:href="#m8d95c9955d" x="191.022" y="275.2" style="stroke: #000000; stroke-width: 0.8"/>
      </g>
     </g>
     <g id="text_3">
      <text style="font: 10px 'Noto Sans CJK JP'; text-anchor: middle" x="191.022" y="290.159375" transform="rotate(-0 191.022 290.159375)">40</text>
     </g>
    </g>
    <g id="xtick_4">
     <g id="line2d_7">
      <path d="M 265.358 275.2 
L 265.358 62.88 
" clip-path="url(#p1cefdaf8b0)" style="fill: none; stroke: #b0b0b0; stroke-opacity: 0.2; stroke-width: 0.8; stroke-linecap: square"/>
     </g>
     <g id="line2d_8">
      <g>
       <use xlink:href="#m8d95c9955d" x="265.358" y="275.2" style="stroke: #000000; stroke-width: 0.8"/>
      </g>
     </g>
     <g id="text_4">
      <text style="font: 10px 'Noto Sans CJK JP'; text-anchor: middle" x="265.358" y="290.159375" transform="rotate(-0 265.358 290.159375)">60</text>
     </g>
    </g>
    <g id="xtick_5">
     <g id="line2d_9">
      <path d="M 339.694 275.2 
L 339.694 62.88 
" clip-path="url(#p1cefdaf8b0)" style="fill: none; stroke: #b0b0b0; stroke-opacity: 0.2; stroke-width: 0.8; stroke-linecap: square"/>
     </g>
     <g id="line2d_10">
      <g>
       <use xlink:href="#m8d95c9955d" x="339.694" y="275.2" style="stroke: #000000; stroke-width: 0.8"/>
      </g>
     </g>
     <g id="text_5">
      <text style="font: 10px 'Noto Sans CJK JP'; text-anchor: middle" x="339.694" y="290.159375" transform="rotate(-0 339.694 290.159375)">80</text>
     </g>
    </g>
    <g id="xtick_6">
     <g id="line2d_11">
      <path d="M 414.03 275.2 
L 414.03 62.88 
" clip-path="url(#p1cefdaf8b0)" style="fill: none; stroke: #b0b0b0; stroke-opacity: 0.2; stroke-width: 0.8; stroke-linecap: square"/>
     </g>
     <g id="line2d_12">
      <g>
       <use xlink:href="#m8d95c9955d" x="414.03" y="275.2" style="stroke: #000000; stroke-width: 0.8"/>
      </g>
     </g>
     <g id="text_6">
      <text style="font: 10px 'Noto Sans CJK JP'; text-anchor: middle" x="414.03" y="290.159375" transform="rotate(-0 414.03 290.159375)">100</text>
     </g>
    </g>
    <g id="text_7">
     <text style="font: 10px 'Noto Sans CJK JP'; text-anchor: middle" x="228.19" y="304.479687" transform="rotate(-0 228.19 304.479687)">태스크 선택 후 경과 시간 (µs)</text>
    </g>
   </g>
   <g id="matplotlib.axis_2">
    <g id="ytick_1">
     <g id="line2d_13">
      <path d="M 42.35 275.2 
L 414.03 275.2 
" clip-path="url(#p1cefdaf8b0)" style="fill: none; stroke: #b0b0b0; stroke-opacity: 0.2; stroke-width: 0.8; stroke-linecap: square"/>
     </g>
     <g id="line2d_14">
      <defs>
       <path id="mc798144d10" d="M 0 0 
L -3.5 0 
" style="stroke: #000000; stroke-width: 0.8"/>
      </defs>
      <g>
       <use xlink:href="#mc798144d10" x="42.35" y="275.2" style="stroke: #000000; stroke-width: 0.8"/>
      </g>
     </g>
     <g id="text_8">
      <text style="font: 10px 'Noto Sans CJK JP'; text-anchor: end" x="35.35" y="279.179687" transform="rotate(-0 35.35 279.179687)">0.0</text>
     </g>
    </g>
    <g id="ytick_2">
     <g id="line2d_15">
      <path d="M 42.35 249.051362 
L 414.03 249.051362 
" clip-path="url(#p1cefdaf8b0)" style="fill: none; stroke: #b0b0b0; stroke-opacity: 0.2; stroke-width: 0.8; stroke-linecap: square"/>
     </g>
     <g id="line2d_16">
      <g>
       <use xlink:href="#mc798144d10" x="42.35" y="249.051362" style="stroke: #000000; stroke-width: 0.8"/>
      </g>
     </g>
     <g id="text_9">
      <text style="font: 10px 'Noto Sans CJK JP'; text-anchor: end" x="35.35" y="253.031049" transform="rotate(-0 35.35 253.031049)">0.2</text>
     </g>
    </g>
    <g id="ytick_3">
     <g id="line2d_17">
      <path d="M 42.35 222.902723 
L 414.03 222.902723 
" clip-path="url(#p1cefdaf8b0)" style="fill: none; stroke: #b0b0b0; stroke-opacity: 0.2; stroke-width: 0.8; stroke-linecap: square"/>
     </g>
     <g id="line2d_18">
      <g>
       <use xlink:href="#mc798144d10" x="42.35" y="222.902723" style="stroke: #000000; stroke-width: 0.8"/>
      </g>
     </g>
     <g id="text_10">
      <text style="font: 10px 'Noto Sans CJK JP'; text-anchor: end" x="35.35" y="226.882411" transform="rotate(-0 35.35 226.882411)">0.4</text>
     </g>
    </g>
    <g id="ytick_4">
     <g id="line2d_19">
      <path d="M 42.35 196.754085 
L 414.03 196.754085 
" clip-path="url(#p1cefdaf8b0)" style="fill: none; stroke: #b0b0b0; stroke-opacity: 0.2; stroke-width: 0.8; stroke-linecap: square"/>
     </g>
     <g id="line2d_20">
      <g>
       <use xlink:href="#mc798144d10" x="42.35" y="196.754085" style="stroke: #000000; stroke-width: 0.8"/>
      </g>
     </g>
     <g id="text_11">
      <text style="font: 10px 'Noto Sans CJK JP'; text-anchor: end" x="35.35" y="200.733772" transform="rotate(-0 35.35 200.733772)">0.6</text>
     </g>
    </g>
    <g id="ytick_5">
     <g id="line2d_21">
      <path d="M 42.35 170.605446 
L 414.03 170.605446 
" clip-path="url(#p1cefdaf8b0)" style="fill: none; stroke: #b0b0b0; stroke-opacity: 0.2; stroke-width: 0.8; stroke-linecap: square"/>
     </g>
     <g id="line2d_22">
      <g>
       <use xlink:href="#mc798144d10" x="42.35" y="170.605446" style="stroke: #000000; stroke-width: 0.8"/>
      </g>
     </g>
     <g id="text_12">
      <text style="font: 10px 'Noto Sans CJK JP'; text-anchor: end" x="35.35" y="174.585134" transform="rotate(-0 35.35 174.585134)">0.8</text>
     </g>
    </g>
    <g id="ytick_6">
     <g id="line2d_23">
      <path d="M 42.35 144.456808 
L 414.03 144.456808 
" clip-path="url(#p1cefdaf8b0)" style="fill: none; stroke: #b0b0b0; stroke-opacity: 0.2; stroke-width: 0.8; stroke-linecap: square"/>
     </g>
     <g id="line2d_24">
      <g>
       <use xlink:href="#mc798144d10" x="42.35" y="144.456808" style="stroke: #000000; stroke-width: 0.8"/>
      </g>
     </g>
     <g id="text_13">
      <text style="font: 10px 'Noto Sans CJK JP'; text-anchor: end" x="35.35" y="148.436495" transform="rotate(-0 35.35 148.436495)">1.0</text>
     </g>
    </g>
    <g id="ytick_7">
     <g id="line2d_25">
      <path d="M 42.35 118.308169 
L 414.03 118.308169 
" clip-path="url(#p1cefdaf8b0)" style="fill: none; stroke: #b0b0b0; stroke-opacity: 0.2; stroke-width: 0.8; stroke-linecap: square"/>
     </g>
     <g id="line2d_26">
      <g>
       <use xlink:href="#mc798144d10" x="42.35" y="118.308169" style="stroke: #000000; stroke-width: 0.8"/>
      </g>
     </g>
     <g id="text_14">
      <text style="font: 10px 'Noto Sans CJK JP'; text-anchor: end" x="35.35" y="122.287857" transform="rotate(-0 35.35 122.287857)">1.2</text>
     </g>
    </g>
    <g id="ytick_8">
     <g id="line2d_27">
      <path d="M 42.35 92.159531 
L 414.03 92.159531 
" clip-path="url(#p1cefdaf8b0)" style="fill: none; stroke: #b0b0b0; stroke-opacity: 0.2; stroke-width: 0.8; stroke-linecap: square"/>
     </g>
     <g id="line2d_28">
      <g>
       <use xlink:href="#mc798144d10" x="42.35" y="92.159531" style="stroke: #000000; stroke-width: 0.8"/>
      </g>
     </g>
     <g id="text_15">
      <text style="font: 10px 'Noto Sans CJK JP'; text-anchor: end" x="35.35" y="96.139218" transform="rotate(-0 35.35 96.139218)">1.4</text>
     </g>
    </g>
    <g id="ytick_9">
     <g id="line2d_29">
      <path d="M 42.35 66.010892 
L 414.03 66.010892 
" clip-path="url(#p1cefdaf8b0)" style="fill: none; stroke: #b0b0b0; stroke-opacity: 0.2; stroke-width: 0.8; stroke-linecap: square"/>
     </g>
     <g id="line2d_30">
      <g>
       <use xlink:href="#mc798144d10" x="42.35" y="66.010892" style="stroke: #000000; stroke-width: 0.8"/>
      </g>
     </g>
     <g id="text_16">
      <text style="font: 10px 'Noto Sans CJK JP'; text-anchor: end" x="35.35" y="69.99058" transform="rotate(-0 35.35 69.99058)">1.6</text>
     </g>
    </g>
    <g id="text_17">
     <text style="font: 10px 'Noto Sans CJK JP'; text-anchor: middle" x="15.179688" y="169.04" transform="rotate(-90 15.179688 169.04)">실행 CPU 시간 1 µs당 retired L2 miss</text>
    </g>
   </g>
   <g id="patch_6">
    <path d="M 42.35 275.2 
L 42.35 62.88 
" style="fill: none; stroke: #000000; stroke-width: 0.8; stroke-linejoin: miter; stroke-linecap: square"/>
   </g>
   <g id="patch_7">
    <path d="M 414.03 275.2 
L 414.03 62.88 
" style="fill: none; stroke: #000000; stroke-width: 0.8; stroke-linejoin: miter; stroke-linecap: square"/>
   </g>
   <g id="patch_8">
    <path d="M 42.35 275.2 
L 414.03 275.2 
" style="fill: none; stroke: #000000; stroke-width: 0.8; stroke-linejoin: miter; stroke-linecap: square"/>
   </g>
   <g id="patch_9">
    <path d="M 42.35 62.88 
L 414.03 62.88 
" style="fill: none; stroke: #000000; stroke-width: 0.8; stroke-linejoin: miter; stroke-linecap: square"/>
   </g>
   <g id="text_18">
    <text style="font: 12px 'Noto Sans CJK JP'; text-anchor: middle" x="228.19" y="56.88" transform="rotate(-0 228.19 56.88)">앱 서버 9개 · 새 스레드 첫 실행</text>
   </g>
   <g id="legend_1">
    <g id="patch_10">
     <path d="M 285.965625 97.53 
L 407.73 97.53 
Q 409.53 97.53 409.53 95.73 
L 409.53 69.18 
Q 409.53 67.38 407.73 67.38 
L 285.965625 67.38 
Q 284.165625 67.38 284.165625 69.18 
L 284.165625 95.73 
Q 284.165625 97.53 285.965625 97.53 
z
" style="fill: #ffffff; opacity: 0.8; stroke: #cccccc; stroke-linejoin: miter"/>
    </g>
    <g id="line2d_31">
     <path d="M 287.765625 74.993437 
L 305.765625 74.993437 
" style="fill: none; stroke: #1f77b4; stroke-width: 1.8; stroke-linecap: square"/>
    </g>
    <g id="text_19">
     <text style="font: 9px 'Noto Sans CJK JP'; text-anchor: start" x="312.965625" y="78.143437" transform="rotate(-0 312.965625 78.143437)">기존 정책</text>
    </g>
    <g id="line2d_32">
     <path d="M 287.765625 88.718437 
L 305.765625 88.718437 
" style="fill: none; stroke-dasharray: 6.66,2.88; stroke-dashoffset: 0; stroke: #ff7f0e; stroke-width: 1.8"/>
    </g>
    <g id="text_20">
     <text style="font: 9px 'Noto Sans CJK JP'; text-anchor: start" x="312.965625" y="91.868437" transform="rotate(-0 312.965625 91.868437)">응답 헤더 후 IT0/T1 추가</text>
    </g>
   </g>
  </g>
  <g id="axes_2">
   <g id="patch_11">
    <path d="M 468.95 275.2 
L 840.63 275.2 
L 840.63 62.88 
L 468.95 62.88 
z
" style="fill: #ffffff"/>
   </g>
   <g id="patch_12">
    <path d="M 506.118 275.2 
L 506.118 62.88 
L 543.286 62.88 
L 543.286 275.2 
z
" clip-path="url(#p815b40993d)" style="fill: #f6b54c; opacity: 0.2; stroke: #f6b54c; stroke-linejoin: miter"/>
   </g>
   <g id="matplotlib.axis_3">
    <g id="xtick_7">
     <g id="line2d_33">
      <path d="M 468.95 275.2 
L 468.95 62.88 
" clip-path="url(#p815b40993d)" style="fill: none; stroke: #b0b0b0; stroke-opacity: 0.2; stroke-width: 0.8; stroke-linecap: square"/>
     </g>
     <g id="line2d_34">
      <g>
       <use xlink:href="#m8d95c9955d" x="468.95" y="275.2" style="stroke: #000000; stroke-width: 0.8"/>
      </g>
     </g>
     <g id="text_21">
      <text style="font: 10px 'Noto Sans CJK JP'; text-anchor: middle" x="468.95" y="290.159375" transform="rotate(-0 468.95 290.159375)">0</text>
     </g>
    </g>
    <g id="xtick_8">
     <g id="line2d_35">
      <path d="M 543.286 275.2 
L 543.286 62.88 
" clip-path="url(#p815b40993d)" style="fill: none; stroke: #b0b0b0; stroke-opacity: 0.2; stroke-width: 0.8; stroke-linecap: square"/>
     </g>
     <g id="line2d_36">
      <g>
       <use xlink:href="#m8d95c9955d" x="543.286" y="275.2" style="stroke: #000000; stroke-width: 0.8"/>
      </g>
     </g>
     <g id="text_22">
      <text style="font: 10px 'Noto Sans CJK JP'; text-anchor: middle" x="543.286" y="290.159375" transform="rotate(-0 543.286 290.159375)">20</text>
     </g>
    </g>
    <g id="xtick_9">
     <g id="line2d_37">
      <path d="M 617.622 275.2 
L 617.622 62.88 
" clip-path="url(#p815b40993d)" style="fill: none; stroke: #b0b0b0; stroke-opacity: 0.2; stroke-width: 0.8; stroke-linecap: square"/>
     </g>
     <g id="line2d_38">
      <g>
       <use xlink:href="#m8d95c9955d" x="617.622" y="275.2" style="stroke: #000000; stroke-width: 0.8"/>
      </g>
     </g>
     <g id="text_23">
      <text style="font: 10px 'Noto Sans CJK JP'; text-anchor: middle" x="617.622" y="290.159375" transform="rotate(-0 617.622 290.159375)">40</text>
     </g>
    </g>
    <g id="xtick_10">
     <g id="line2d_39">
      <path d="M 691.958 275.2 
L 691.958 62.88 
" clip-path="url(#p815b40993d)" style="fill: none; stroke: #b0b0b0; stroke-opacity: 0.2; stroke-width: 0.8; stroke-linecap: square"/>
     </g>
     <g id="line2d_40">
      <g>
       <use xlink:href="#m8d95c9955d" x="691.958" y="275.2" style="stroke: #000000; stroke-width: 0.8"/>
      </g>
     </g>
     <g id="text_24">
      <text style="font: 10px 'Noto Sans CJK JP'; text-anchor: middle" x="691.958" y="290.159375" transform="rotate(-0 691.958 290.159375)">60</text>
     </g>
    </g>
    <g id="xtick_11">
     <g id="line2d_41">
      <path d="M 766.294 275.2 
L 766.294 62.88 
" clip-path="url(#p815b40993d)" style="fill: none; stroke: #b0b0b0; stroke-opacity: 0.2; stroke-width: 0.8; stroke-linecap: square"/>
     </g>
     <g id="line2d_42">
      <g>
       <use xlink:href="#m8d95c9955d" x="766.294" y="275.2" style="stroke: #000000; stroke-width: 0.8"/>
      </g>
     </g>
     <g id="text_25">
      <text style="font: 10px 'Noto Sans CJK JP'; text-anchor: middle" x="766.294" y="290.159375" transform="rotate(-0 766.294 290.159375)">80</text>
     </g>
    </g>
    <g id="xtick_12">
     <g id="line2d_43">
      <path d="M 840.63 275.2 
L 840.63 62.88 
" clip-path="url(#p815b40993d)" style="fill: none; stroke: #b0b0b0; stroke-opacity: 0.2; stroke-width: 0.8; stroke-linecap: square"/>
     </g>
     <g id="line2d_44">
      <g>
       <use xlink:href="#m8d95c9955d" x="840.63" y="275.2" style="stroke: #000000; stroke-width: 0.8"/>
      </g>
     </g>
     <g id="text_26">
      <text style="font: 10px 'Noto Sans CJK JP'; text-anchor: middle" x="840.63" y="290.159375" transform="rotate(-0 840.63 290.159375)">100</text>
     </g>
    </g>
    <g id="text_27">
     <text style="font: 10px 'Noto Sans CJK JP'; text-anchor: middle" x="654.79" y="304.479687" transform="rotate(-0 654.79 304.479687)">태스크 선택 후 경과 시간 (µs)</text>
    </g>
   </g>
   <g id="matplotlib.axis_4">
    <g id="ytick_10">
     <g id="line2d_45">
      <path d="M 468.95 275.2 
L 840.63 275.2 
" clip-path="url(#p815b40993d)" style="fill: none; stroke: #b0b0b0; stroke-opacity: 0.2; stroke-width: 0.8; stroke-linecap: square"/>
     </g>
     <g id="line2d_46">
      <g>
       <use xlink:href="#mc798144d10" x="468.95" y="275.2" style="stroke: #000000; stroke-width: 0.8"/>
      </g>
     </g>
     <g id="text_28">
      <text style="font: 10px 'Noto Sans CJK JP'; text-anchor: end" x="461.95" y="279.179687" transform="rotate(-0 461.95 279.179687)">0.0</text>
     </g>
    </g>
    <g id="ytick_11">
     <g id="line2d_47">
      <path d="M 468.95 232.736 
L 840.63 232.736 
" clip-path="url(#p815b40993d)" style="fill: none; stroke: #b0b0b0; stroke-opacity: 0.2; stroke-width: 0.8; stroke-linecap: square"/>
     </g>
     <g id="line2d_48">
      <g>
       <use xlink:href="#mc798144d10" x="468.95" y="232.736" style="stroke: #000000; stroke-width: 0.8"/>
      </g>
     </g>
     <g id="text_29">
      <text style="font: 10px 'Noto Sans CJK JP'; text-anchor: end" x="461.95" y="236.715687" transform="rotate(-0 461.95 236.715687)">0.2</text>
     </g>
    </g>
    <g id="ytick_12">
     <g id="line2d_49">
      <path d="M 468.95 190.272 
L 840.63 190.272 
" clip-path="url(#p815b40993d)" style="fill: none; stroke: #b0b0b0; stroke-opacity: 0.2; stroke-width: 0.8; stroke-linecap: square"/>
     </g>
     <g id="line2d_50">
      <g>
       <use xlink:href="#mc798144d10" x="468.95" y="190.272" style="stroke: #000000; stroke-width: 0.8"/>
      </g>
     </g>
     <g id="text_30">
      <text style="font: 10px 'Noto Sans CJK JP'; text-anchor: end" x="461.95" y="194.251687" transform="rotate(-0 461.95 194.251687)">0.4</text>
     </g>
    </g>
    <g id="ytick_13">
     <g id="line2d_51">
      <path d="M 468.95 147.808 
L 840.63 147.808 
" clip-path="url(#p815b40993d)" style="fill: none; stroke: #b0b0b0; stroke-opacity: 0.2; stroke-width: 0.8; stroke-linecap: square"/>
     </g>
     <g id="line2d_52">
      <g>
       <use xlink:href="#mc798144d10" x="468.95" y="147.808" style="stroke: #000000; stroke-width: 0.8"/>
      </g>
     </g>
     <g id="text_31">
      <text style="font: 10px 'Noto Sans CJK JP'; text-anchor: end" x="461.95" y="151.787687" transform="rotate(-0 461.95 151.787687)">0.6</text>
     </g>
    </g>
    <g id="ytick_14">
     <g id="line2d_53">
      <path d="M 468.95 105.344 
L 840.63 105.344 
" clip-path="url(#p815b40993d)" style="fill: none; stroke: #b0b0b0; stroke-opacity: 0.2; stroke-width: 0.8; stroke-linecap: square"/>
     </g>
     <g id="line2d_54">
      <g>
       <use xlink:href="#mc798144d10" x="468.95" y="105.344" style="stroke: #000000; stroke-width: 0.8"/>
      </g>
     </g>
     <g id="text_32">
      <text style="font: 10px 'Noto Sans CJK JP'; text-anchor: end" x="461.95" y="109.323687" transform="rotate(-0 461.95 109.323687)">0.8</text>
     </g>
    </g>
    <g id="ytick_15">
     <g id="line2d_55">
      <path d="M 468.95 62.88 
L 840.63 62.88 
" clip-path="url(#p815b40993d)" style="fill: none; stroke: #b0b0b0; stroke-opacity: 0.2; stroke-width: 0.8; stroke-linecap: square"/>
     </g>
     <g id="line2d_56">
      <g>
       <use xlink:href="#mc798144d10" x="468.95" y="62.88" style="stroke: #000000; stroke-width: 0.8"/>
      </g>
     </g>
     <g id="text_33">
      <text style="font: 10px 'Noto Sans CJK JP'; text-anchor: end" x="461.95" y="66.859687" transform="rotate(-0 461.95 66.859687)">1.0</text>
     </g>
    </g>
    <g id="text_34">
     <text style="font: 10px 'Noto Sans CJK JP'; text-anchor: middle" x="441.779687" y="169.04" transform="rotate(-90 441.779687 169.04)">실행 CPU 시간 1 µs당 retired L2 miss</text>
    </g>
   </g>
   <g id="patch_13">
    <path d="M 468.95 275.2 
L 468.95 62.88 
" style="fill: none; stroke: #000000; stroke-width: 0.8; stroke-linejoin: miter; stroke-linecap: square"/>
   </g>
   <g id="patch_14">
    <path d="M 840.63 275.2 
L 840.63 62.88 
" style="fill: none; stroke: #000000; stroke-width: 0.8; stroke-linejoin: miter; stroke-linecap: square"/>
   </g>
   <g id="patch_15">
    <path d="M 468.95 275.2 
L 840.63 275.2 
" style="fill: none; stroke: #000000; stroke-width: 0.8; stroke-linejoin: miter; stroke-linecap: square"/>
   </g>
   <g id="patch_16">
    <path d="M 468.95 62.88 
L 840.63 62.88 
" style="fill: none; stroke: #000000; stroke-width: 0.8; stroke-linejoin: miter; stroke-linecap: square"/>
   </g>
   <g id="text_35">
    <text style="fill: #666666; font: 10px 'Noto Sans CJK JP'; text-anchor: middle" x="654.79" y="171.874375" transform="rotate(-0 654.79 171.874375)">해당 분류의 관측 구간 없음</text>
   </g>
   <g id="text_36">
    <text style="font: 12px 'Noto Sans CJK JP'; text-anchor: middle" x="654.79" y="56.88" transform="rotate(-0 654.79 56.88)">MongoDB 3개 · 새 스레드 첫 실행</text>
   </g>
  </g>
  <g id="axes_3">
   <g id="patch_17">
    <path d="M 42.35 546.28 
L 414.03 546.28 
L 414.03 333.96 
L 42.35 333.96 
z
" style="fill: #ffffff"/>
   </g>
   <g id="patch_18">
    <path d="M 42.35 546.28 
L 42.35 546.28 
L 46.0668 546.28 
L 46.0668 546.28 
L 49.7836 546.28 
L 49.7836 527.987531 
L 60.934 527.987531 
L 60.934 428.795133 
L 72.0844 428.795133 
L 72.0844 361.891911 
L 79.518 361.891911 
L 79.518 344.070476 
L 98.102 344.070476 
L 98.102 356.368183 
L 116.686 356.368183 
L 116.686 369.244696 
L 135.27 369.244696 
L 135.27 377.261089 
L 153.854 377.261089 
L 153.854 389.836633 
L 191.022 389.836633 
L 191.022 367.580634 
L 228.19 367.580634 
L 228.19 437.529353 
L 321.11 437.529353 
L 321.11 518.422024 
L 414.03 518.422024 
L 414.03 546.28 
" clip-path="url(#p929cdc2670)" style="fill: none; stroke: #1f77b4; stroke-width: 1.8; stroke-linejoin: miter"/>
   </g>
   <g id="patch_19">
    <path d="M 42.35 546.28 
L 42.35 546.28 
L 46.0668 546.28 
L 46.0668 546.28 
L 49.7836 546.28 
L 49.7836 527.115798 
L 60.934 527.115798 
L 60.934 425.601778 
L 72.0844 425.601778 
L 72.0844 371.562177 
L 79.518 371.562177 
L 79.518 346.722484 
L 98.102 346.722484 
L 98.102 361.652269 
L 116.686 361.652269 
L 116.686 372.008175 
L 135.27 372.008175 
L 135.27 381.120953 
L 153.854 381.120953 
L 153.854 395.492928 
L 191.022 395.492928 
L 191.022 376.178915 
L 228.19 376.178915 
L 228.19 435.160012 
L 321.11 435.160012 
L 321.11 515.098728 
L 414.03 515.098728 
L 414.03 546.28 
" clip-path="url(#p929cdc2670)" style="fill: none; stroke-dasharray: 6.66,2.88; stroke-dashoffset: 0; stroke: #ff7f0e; stroke-width: 1.8; stroke-linejoin: miter"/>
   </g>
   <g id="patch_20">
    <path d="M 79.518 546.28 
L 79.518 333.96 
L 116.686 333.96 
L 116.686 546.28 
z
" clip-path="url(#p929cdc2670)" style="fill: #f6b54c; opacity: 0.2; stroke: #f6b54c; stroke-linejoin: miter"/>
   </g>
   <g id="matplotlib.axis_5">
    <g id="xtick_13">
     <g id="line2d_57">
      <path d="M 42.35 546.28 
L 42.35 333.96 
" clip-path="url(#p929cdc2670)" style="fill: none; stroke: #b0b0b0; stroke-opacity: 0.2; stroke-width: 0.8; stroke-linecap: square"/>
     </g>
     <g id="line2d_58">
      <g>
       <use xlink:href="#m8d95c9955d" x="42.35" y="546.28" style="stroke: #000000; stroke-width: 0.8"/>
      </g>
     </g>
     <g id="text_37">
      <text style="font: 10px 'Noto Sans CJK JP'; text-anchor: middle" x="42.35" y="561.239375" transform="rotate(-0 42.35 561.239375)">0</text>
     </g>
    </g>
    <g id="xtick_14">
     <g id="line2d_59">
      <path d="M 116.686 546.28 
L 116.686 333.96 
" clip-path="url(#p929cdc2670)" style="fill: none; stroke: #b0b0b0; stroke-opacity: 0.2; stroke-width: 0.8; stroke-linecap: square"/>
     </g>
     <g id="line2d_60">
      <g>
       <use xlink:href="#m8d95c9955d" x="116.686" y="546.28" style="stroke: #000000; stroke-width: 0.8"/>
      </g>
     </g>
     <g id="text_38">
      <text style="font: 10px 'Noto Sans CJK JP'; text-anchor: middle" x="116.686" y="561.239375" transform="rotate(-0 116.686 561.239375)">20</text>
     </g>
    </g>
    <g id="xtick_15">
     <g id="line2d_61">
      <path d="M 191.022 546.28 
L 191.022 333.96 
" clip-path="url(#p929cdc2670)" style="fill: none; stroke: #b0b0b0; stroke-opacity: 0.2; stroke-width: 0.8; stroke-linecap: square"/>
     </g>
     <g id="line2d_62">
      <g>
       <use xlink:href="#m8d95c9955d" x="191.022" y="546.28" style="stroke: #000000; stroke-width: 0.8"/>
      </g>
     </g>
     <g id="text_39">
      <text style="font: 10px 'Noto Sans CJK JP'; text-anchor: middle" x="191.022" y="561.239375" transform="rotate(-0 191.022 561.239375)">40</text>
     </g>
    </g>
    <g id="xtick_16">
     <g id="line2d_63">
      <path d="M 265.358 546.28 
L 265.358 333.96 
" clip-path="url(#p929cdc2670)" style="fill: none; stroke: #b0b0b0; stroke-opacity: 0.2; stroke-width: 0.8; stroke-linecap: square"/>
     </g>
     <g id="line2d_64">
      <g>
       <use xlink:href="#m8d95c9955d" x="265.358" y="546.28" style="stroke: #000000; stroke-width: 0.8"/>
      </g>
     </g>
     <g id="text_40">
      <text style="font: 10px 'Noto Sans CJK JP'; text-anchor: middle" x="265.358" y="561.239375" transform="rotate(-0 265.358 561.239375)">60</text>
     </g>
    </g>
    <g id="xtick_17">
     <g id="line2d_65">
      <path d="M 339.694 546.28 
L 339.694 333.96 
" clip-path="url(#p929cdc2670)" style="fill: none; stroke: #b0b0b0; stroke-opacity: 0.2; stroke-width: 0.8; stroke-linecap: square"/>
     </g>
     <g id="line2d_66">
      <g>
       <use xlink:href="#m8d95c9955d" x="339.694" y="546.28" style="stroke: #000000; stroke-width: 0.8"/>
      </g>
     </g>
     <g id="text_41">
      <text style="font: 10px 'Noto Sans CJK JP'; text-anchor: middle" x="339.694" y="561.239375" transform="rotate(-0 339.694 561.239375)">80</text>
     </g>
    </g>
    <g id="xtick_18">
     <g id="line2d_67">
      <path d="M 414.03 546.28 
L 414.03 333.96 
" clip-path="url(#p929cdc2670)" style="fill: none; stroke: #b0b0b0; stroke-opacity: 0.2; stroke-width: 0.8; stroke-linecap: square"/>
     </g>
     <g id="line2d_68">
      <g>
       <use xlink:href="#m8d95c9955d" x="414.03" y="546.28" style="stroke: #000000; stroke-width: 0.8"/>
      </g>
     </g>
     <g id="text_42">
      <text style="font: 10px 'Noto Sans CJK JP'; text-anchor: middle" x="414.03" y="561.239375" transform="rotate(-0 414.03 561.239375)">100</text>
     </g>
    </g>
    <g id="text_43">
     <text style="font: 10px 'Noto Sans CJK JP'; text-anchor: middle" x="228.19" y="575.559687" transform="rotate(-0 228.19 575.559687)">태스크 선택 후 경과 시간 (µs)</text>
    </g>
   </g>
   <g id="matplotlib.axis_6">
    <g id="ytick_16">
     <g id="line2d_69">
      <path d="M 42.35 546.28 
L 414.03 546.28 
" clip-path="url(#p929cdc2670)" style="fill: none; stroke: #b0b0b0; stroke-opacity: 0.2; stroke-width: 0.8; stroke-linecap: square"/>
     </g>
     <g id="line2d_70">
      <g>
       <use xlink:href="#mc798144d10" x="42.35" y="546.28" style="stroke: #000000; stroke-width: 0.8"/>
      </g>
     </g>
     <g id="text_44">
      <text style="font: 10px 'Noto Sans CJK JP'; text-anchor: end" x="35.35" y="550.259687" transform="rotate(-0 35.35 550.259687)">0.0</text>
     </g>
    </g>
    <g id="ytick_17">
     <g id="line2d_71">
      <path d="M 42.35 520.883568 
L 414.03 520.883568 
" clip-path="url(#p929cdc2670)" style="fill: none; stroke: #b0b0b0; stroke-opacity: 0.2; stroke-width: 0.8; stroke-linecap: square"/>
     </g>
     <g id="line2d_72">
      <g>
       <use xlink:href="#mc798144d10" x="42.35" y="520.883568" style="stroke: #000000; stroke-width: 0.8"/>
      </g>
     </g>
     <g id="text_45">
      <text style="font: 10px 'Noto Sans CJK JP'; text-anchor: end" x="35.35" y="524.863255" transform="rotate(-0 35.35 524.863255)">0.1</text>
     </g>
    </g>
    <g id="ytick_18">
     <g id="line2d_73">
      <path d="M 42.35 495.487136 
L 414.03 495.487136 
" clip-path="url(#p929cdc2670)" style="fill: none; stroke: #b0b0b0; stroke-opacity: 0.2; stroke-width: 0.8; stroke-linecap: square"/>
     </g>
     <g id="line2d_74">
      <g>
       <use xlink:href="#mc798144d10" x="42.35" y="495.487136" style="stroke: #000000; stroke-width: 0.8"/>
      </g>
     </g>
     <g id="text_46">
      <text style="font: 10px 'Noto Sans CJK JP'; text-anchor: end" x="35.35" y="499.466823" transform="rotate(-0 35.35 499.466823)">0.2</text>
     </g>
    </g>
    <g id="ytick_19">
     <g id="line2d_75">
      <path d="M 42.35 470.090704 
L 414.03 470.090704 
" clip-path="url(#p929cdc2670)" style="fill: none; stroke: #b0b0b0; stroke-opacity: 0.2; stroke-width: 0.8; stroke-linecap: square"/>
     </g>
     <g id="line2d_76">
      <g>
       <use xlink:href="#mc798144d10" x="42.35" y="470.090704" style="stroke: #000000; stroke-width: 0.8"/>
      </g>
     </g>
     <g id="text_47">
      <text style="font: 10px 'Noto Sans CJK JP'; text-anchor: end" x="35.35" y="474.070391" transform="rotate(-0 35.35 474.070391)">0.3</text>
     </g>
    </g>
    <g id="ytick_20">
     <g id="line2d_77">
      <path d="M 42.35 444.694271 
L 414.03 444.694271 
" clip-path="url(#p929cdc2670)" style="fill: none; stroke: #b0b0b0; stroke-opacity: 0.2; stroke-width: 0.8; stroke-linecap: square"/>
     </g>
     <g id="line2d_78">
      <g>
       <use xlink:href="#mc798144d10" x="42.35" y="444.694271" style="stroke: #000000; stroke-width: 0.8"/>
      </g>
     </g>
     <g id="text_48">
      <text style="font: 10px 'Noto Sans CJK JP'; text-anchor: end" x="35.35" y="448.673959" transform="rotate(-0 35.35 448.673959)">0.4</text>
     </g>
    </g>
    <g id="ytick_21">
     <g id="line2d_79">
      <path d="M 42.35 419.297839 
L 414.03 419.297839 
" clip-path="url(#p929cdc2670)" style="fill: none; stroke: #b0b0b0; stroke-opacity: 0.2; stroke-width: 0.8; stroke-linecap: square"/>
     </g>
     <g id="line2d_80">
      <g>
       <use xlink:href="#mc798144d10" x="42.35" y="419.297839" style="stroke: #000000; stroke-width: 0.8"/>
      </g>
     </g>
     <g id="text_49">
      <text style="font: 10px 'Noto Sans CJK JP'; text-anchor: end" x="35.35" y="423.277527" transform="rotate(-0 35.35 423.277527)">0.5</text>
     </g>
    </g>
    <g id="ytick_22">
     <g id="line2d_81">
      <path d="M 42.35 393.901407 
L 414.03 393.901407 
" clip-path="url(#p929cdc2670)" style="fill: none; stroke: #b0b0b0; stroke-opacity: 0.2; stroke-width: 0.8; stroke-linecap: square"/>
     </g>
     <g id="line2d_82">
      <g>
       <use xlink:href="#mc798144d10" x="42.35" y="393.901407" style="stroke: #000000; stroke-width: 0.8"/>
      </g>
     </g>
     <g id="text_50">
      <text style="font: 10px 'Noto Sans CJK JP'; text-anchor: end" x="35.35" y="397.881095" transform="rotate(-0 35.35 397.881095)">0.6</text>
     </g>
    </g>
    <g id="ytick_23">
     <g id="line2d_83">
      <path d="M 42.35 368.504975 
L 414.03 368.504975 
" clip-path="url(#p929cdc2670)" style="fill: none; stroke: #b0b0b0; stroke-opacity: 0.2; stroke-width: 0.8; stroke-linecap: square"/>
     </g>
     <g id="line2d_84">
      <g>
       <use xlink:href="#mc798144d10" x="42.35" y="368.504975" style="stroke: #000000; stroke-width: 0.8"/>
      </g>
     </g>
     <g id="text_51">
      <text style="font: 10px 'Noto Sans CJK JP'; text-anchor: end" x="35.35" y="372.484662" transform="rotate(-0 35.35 372.484662)">0.7</text>
     </g>
    </g>
    <g id="ytick_24">
     <g id="line2d_85">
      <path d="M 42.35 343.108543 
L 414.03 343.108543 
" clip-path="url(#p929cdc2670)" style="fill: none; stroke: #b0b0b0; stroke-opacity: 0.2; stroke-width: 0.8; stroke-linecap: square"/>
     </g>
     <g id="line2d_86">
      <g>
       <use xlink:href="#mc798144d10" x="42.35" y="343.108543" style="stroke: #000000; stroke-width: 0.8"/>
      </g>
     </g>
     <g id="text_52">
      <text style="font: 10px 'Noto Sans CJK JP'; text-anchor: end" x="35.35" y="347.08823" transform="rotate(-0 35.35 347.08823)">0.8</text>
     </g>
    </g>
    <g id="text_53">
     <text style="font: 10px 'Noto Sans CJK JP'; text-anchor: middle" x="15.179688" y="440.12" transform="rotate(-90 15.179688 440.12)">실행 CPU 시간 1 µs당 retired L2 miss</text>
    </g>
   </g>
   <g id="patch_21">
    <path d="M 42.35 546.28 
L 42.35 333.96 
" style="fill: none; stroke: #000000; stroke-width: 0.8; stroke-linejoin: miter; stroke-linecap: square"/>
   </g>
   <g id="patch_22">
    <path d="M 414.03 546.28 
L 414.03 333.96 
" style="fill: none; stroke: #000000; stroke-width: 0.8; stroke-linejoin: miter; stroke-linecap: square"/>
   </g>
   <g id="patch_23">
    <path d="M 42.35 546.28 
L 414.03 546.28 
" style="fill: none; stroke: #000000; stroke-width: 0.8; stroke-linejoin: miter; stroke-linecap: square"/>
   </g>
   <g id="patch_24">
    <path d="M 42.35 333.96 
L 414.03 333.96 
" style="fill: none; stroke: #000000; stroke-width: 0.8; stroke-linejoin: miter; stroke-linecap: square"/>
   </g>
   <g id="text_54">
    <text style="font: 12px 'Noto Sans CJK JP'; text-anchor: middle" x="228.19" y="327.96" transform="rotate(-0 228.19 327.96)">앱 서버 9개 · 기존 스레드 실행 재개</text>
   </g>
   <g id="legend_2">
    <g id="patch_25">
     <path d="M 285.965625 368.61 
L 407.73 368.61 
Q 409.53 368.61 409.53 366.81 
L 409.53 340.26 
Q 409.53 338.46 407.73 338.46 
L 285.965625 338.46 
Q 284.165625 338.46 284.165625 340.26 
L 284.165625 366.81 
Q 284.165625 368.61 285.965625 368.61 
z
" style="fill: #ffffff; opacity: 0.8; stroke: #cccccc; stroke-linejoin: miter"/>
    </g>
    <g id="line2d_87">
     <path d="M 287.765625 346.073437 
L 305.765625 346.073437 
" style="fill: none; stroke: #1f77b4; stroke-width: 1.8; stroke-linecap: square"/>
    </g>
    <g id="text_55">
     <text style="font: 9px 'Noto Sans CJK JP'; text-anchor: start" x="312.965625" y="349.223437" transform="rotate(-0 312.965625 349.223437)">기존 정책</text>
    </g>
    <g id="line2d_88">
     <path d="M 287.765625 359.798437 
L 305.765625 359.798437 
" style="fill: none; stroke-dasharray: 6.66,2.88; stroke-dashoffset: 0; stroke: #ff7f0e; stroke-width: 1.8"/>
    </g>
    <g id="text_56">
     <text style="font: 9px 'Noto Sans CJK JP'; text-anchor: start" x="312.965625" y="362.948437" transform="rotate(-0 312.965625 362.948437)">응답 헤더 후 IT0/T1 추가</text>
    </g>
   </g>
  </g>
  <g id="axes_4">
   <g id="patch_26">
    <path d="M 468.95 546.28 
L 840.63 546.28 
L 840.63 333.96 
L 468.95 333.96 
z
" style="fill: #ffffff"/>
   </g>
   <g id="patch_27">
    <path d="M 468.95 546.28 
L 468.95 546.28 
L 472.6668 546.28 
L 472.6668 546.28 
L 476.3836 546.28 
L 476.3836 543.630427 
L 487.534 543.630427 
L 487.534 505.084096 
L 498.6844 505.084096 
L 498.6844 452.615505 
L 506.118 452.615505 
L 506.118 423.629694 
L 524.702 423.629694 
L 524.702 401.100722 
L 543.286 401.100722 
L 543.286 362.516692 
L 561.87 362.516692 
L 561.87 414.309138 
L 580.454 414.309138 
L 580.454 433.527064 
L 617.622 433.527064 
L 617.622 448.825089 
L 654.79 448.825089 
L 654.79 450.307318 
L 747.71 450.307318 
L 747.71 425.412589 
L 840.63 425.412589 
L 840.63 546.28 
" clip-path="url(#p2f0656aefa)" style="fill: none; stroke: #1f77b4; stroke-width: 1.8; stroke-linejoin: miter"/>
   </g>
   <g id="patch_28">
    <path d="M 468.95 546.28 
L 468.95 546.28 
L 472.6668 546.28 
L 472.6668 546.28 
L 476.3836 546.28 
L 476.3836 545.335719 
L 487.534 545.335719 
L 487.534 510.283523 
L 498.6844 510.283523 
L 498.6844 458.369736 
L 506.118 458.369736 
L 506.118 413.124499 
L 524.702 413.124499 
L 524.702 408.77114 
L 543.286 408.77114 
L 543.286 344.070476 
L 561.87 344.070476 
L 561.87 412.725332 
L 580.454 412.725332 
L 580.454 438.863104 
L 617.622 438.863104 
L 617.622 451.218507 
L 654.79 451.218507 
L 654.79 447.752252 
L 747.71 447.752252 
L 747.71 421.285244 
L 840.63 421.285244 
L 840.63 546.28 
" clip-path="url(#p2f0656aefa)" style="fill: none; stroke-dasharray: 6.66,2.88; stroke-dashoffset: 0; stroke: #ff7f0e; stroke-width: 1.8; stroke-linejoin: miter"/>
   </g>
   <g id="patch_29">
    <path d="M 506.118 546.28 
L 506.118 333.96 
L 543.286 333.96 
L 543.286 546.28 
z
" clip-path="url(#p2f0656aefa)" style="fill: #f6b54c; opacity: 0.2; stroke: #f6b54c; stroke-linejoin: miter"/>
   </g>
   <g id="matplotlib.axis_7">
    <g id="xtick_19">
     <g id="line2d_89">
      <path d="M 468.95 546.28 
L 468.95 333.96 
" clip-path="url(#p2f0656aefa)" style="fill: none; stroke: #b0b0b0; stroke-opacity: 0.2; stroke-width: 0.8; stroke-linecap: square"/>
     </g>
     <g id="line2d_90">
      <g>
       <use xlink:href="#m8d95c9955d" x="468.95" y="546.28" style="stroke: #000000; stroke-width: 0.8"/>
      </g>
     </g>
     <g id="text_57">
      <text style="font: 10px 'Noto Sans CJK JP'; text-anchor: middle" x="468.95" y="561.239375" transform="rotate(-0 468.95 561.239375)">0</text>
     </g>
    </g>
    <g id="xtick_20">
     <g id="line2d_91">
      <path d="M 543.286 546.28 
L 543.286 333.96 
" clip-path="url(#p2f0656aefa)" style="fill: none; stroke: #b0b0b0; stroke-opacity: 0.2; stroke-width: 0.8; stroke-linecap: square"/>
     </g>
     <g id="line2d_92">
      <g>
       <use xlink:href="#m8d95c9955d" x="543.286" y="546.28" style="stroke: #000000; stroke-width: 0.8"/>
      </g>
     </g>
     <g id="text_58">
      <text style="font: 10px 'Noto Sans CJK JP'; text-anchor: middle" x="543.286" y="561.239375" transform="rotate(-0 543.286 561.239375)">20</text>
     </g>
    </g>
    <g id="xtick_21">
     <g id="line2d_93">
      <path d="M 617.622 546.28 
L 617.622 333.96 
" clip-path="url(#p2f0656aefa)" style="fill: none; stroke: #b0b0b0; stroke-opacity: 0.2; stroke-width: 0.8; stroke-linecap: square"/>
     </g>
     <g id="line2d_94">
      <g>
       <use xlink:href="#m8d95c9955d" x="617.622" y="546.28" style="stroke: #000000; stroke-width: 0.8"/>
      </g>
     </g>
     <g id="text_59">
      <text style="font: 10px 'Noto Sans CJK JP'; text-anchor: middle" x="617.622" y="561.239375" transform="rotate(-0 617.622 561.239375)">40</text>
     </g>
    </g>
    <g id="xtick_22">
     <g id="line2d_95">
      <path d="M 691.958 546.28 
L 691.958 333.96 
" clip-path="url(#p2f0656aefa)" style="fill: none; stroke: #b0b0b0; stroke-opacity: 0.2; stroke-width: 0.8; stroke-linecap: square"/>
     </g>
     <g id="line2d_96">
      <g>
       <use xlink:href="#m8d95c9955d" x="691.958" y="546.28" style="stroke: #000000; stroke-width: 0.8"/>
      </g>
     </g>
     <g id="text_60">
      <text style="font: 10px 'Noto Sans CJK JP'; text-anchor: middle" x="691.958" y="561.239375" transform="rotate(-0 691.958 561.239375)">60</text>
     </g>
    </g>
    <g id="xtick_23">
     <g id="line2d_97">
      <path d="M 766.294 546.28 
L 766.294 333.96 
" clip-path="url(#p2f0656aefa)" style="fill: none; stroke: #b0b0b0; stroke-opacity: 0.2; stroke-width: 0.8; stroke-linecap: square"/>
     </g>
     <g id="line2d_98">
      <g>
       <use xlink:href="#m8d95c9955d" x="766.294" y="546.28" style="stroke: #000000; stroke-width: 0.8"/>
      </g>
     </g>
     <g id="text_61">
      <text style="font: 10px 'Noto Sans CJK JP'; text-anchor: middle" x="766.294" y="561.239375" transform="rotate(-0 766.294 561.239375)">80</text>
     </g>
    </g>
    <g id="xtick_24">
     <g id="line2d_99">
      <path d="M 840.63 546.28 
L 840.63 333.96 
" clip-path="url(#p2f0656aefa)" style="fill: none; stroke: #b0b0b0; stroke-opacity: 0.2; stroke-width: 0.8; stroke-linecap: square"/>
     </g>
     <g id="line2d_100">
      <g>
       <use xlink:href="#m8d95c9955d" x="840.63" y="546.28" style="stroke: #000000; stroke-width: 0.8"/>
      </g>
     </g>
     <g id="text_62">
      <text style="font: 10px 'Noto Sans CJK JP'; text-anchor: middle" x="840.63" y="561.239375" transform="rotate(-0 840.63 561.239375)">100</text>
     </g>
    </g>
    <g id="text_63">
     <text style="font: 10px 'Noto Sans CJK JP'; text-anchor: middle" x="654.79" y="575.559687" transform="rotate(-0 654.79 575.559687)">태스크 선택 후 경과 시간 (µs)</text>
    </g>
   </g>
   <g id="matplotlib.axis_8">
    <g id="ytick_25">
     <g id="line2d_101">
      <path d="M 468.95 546.28 
L 840.63 546.28 
" clip-path="url(#p2f0656aefa)" style="fill: none; stroke: #b0b0b0; stroke-opacity: 0.2; stroke-width: 0.8; stroke-linecap: square"/>
     </g>
     <g id="line2d_102">
      <g>
       <use xlink:href="#mc798144d10" x="468.95" y="546.28" style="stroke: #000000; stroke-width: 0.8"/>
      </g>
     </g>
     <g id="text_64">
      <text style="font: 10px 'Noto Sans CJK JP'; text-anchor: end" x="461.95" y="550.259687" transform="rotate(-0 461.95 550.259687)">0.0</text>
     </g>
    </g>
    <g id="ytick_26">
     <g id="line2d_103">
      <path d="M 468.95 500.346372 
L 840.63 500.346372 
" clip-path="url(#p2f0656aefa)" style="fill: none; stroke: #b0b0b0; stroke-opacity: 0.2; stroke-width: 0.8; stroke-linecap: square"/>
     </g>
     <g id="line2d_104">
      <g>
       <use xlink:href="#mc798144d10" x="468.95" y="500.346372" style="stroke: #000000; stroke-width: 0.8"/>
      </g>
     </g>
     <g id="text_65">
      <text style="font: 10px 'Noto Sans CJK JP'; text-anchor: end" x="461.95" y="504.326059" transform="rotate(-0 461.95 504.326059)">0.5</text>
     </g>
    </g>
    <g id="ytick_27">
     <g id="line2d_105">
      <path d="M 468.95 454.412743 
L 840.63 454.412743 
" clip-path="url(#p2f0656aefa)" style="fill: none; stroke: #b0b0b0; stroke-opacity: 0.2; stroke-width: 0.8; stroke-linecap: square"/>
     </g>
     <g id="line2d_106">
      <g>
       <use xlink:href="#mc798144d10" x="468.95" y="454.412743" style="stroke: #000000; stroke-width: 0.8"/>
      </g>
     </g>
     <g id="text_66">
      <text style="font: 10px 'Noto Sans CJK JP'; text-anchor: end" x="461.95" y="458.392431" transform="rotate(-0 461.95 458.392431)">1.0</text>
     </g>
    </g>
    <g id="ytick_28">
     <g id="line2d_107">
      <path d="M 468.95 408.479115 
L 840.63 408.479115 
" clip-path="url(#p2f0656aefa)" style="fill: none; stroke: #b0b0b0; stroke-opacity: 0.2; stroke-width: 0.8; stroke-linecap: square"/>
     </g>
     <g id="line2d_108">
      <g>
       <use xlink:href="#mc798144d10" x="468.95" y="408.479115" style="stroke: #000000; stroke-width: 0.8"/>
      </g>
     </g>
     <g id="text_67">
      <text style="font: 10px 'Noto Sans CJK JP'; text-anchor: end" x="461.95" y="412.458802" transform="rotate(-0 461.95 412.458802)">1.5</text>
     </g>
    </g>
    <g id="ytick_29">
     <g id="line2d_109">
      <path d="M 468.95 362.545486 
L 840.63 362.545486 
" clip-path="url(#p2f0656aefa)" style="fill: none; stroke: #b0b0b0; stroke-opacity: 0.2; stroke-width: 0.8; stroke-linecap: square"/>
     </g>
     <g id="line2d_110">
      <g>
       <use xlink:href="#mc798144d10" x="468.95" y="362.545486" style="stroke: #000000; stroke-width: 0.8"/>
      </g>
     </g>
     <g id="text_68">
      <text style="font: 10px 'Noto Sans CJK JP'; text-anchor: end" x="461.95" y="366.525174" transform="rotate(-0 461.95 366.525174)">2.0</text>
     </g>
    </g>
    <g id="text_69">
     <text style="font: 10px 'Noto Sans CJK JP'; text-anchor: middle" x="441.779687" y="440.12" transform="rotate(-90 441.779687 440.12)">실행 CPU 시간 1 µs당 retired L2 miss</text>
    </g>
   </g>
   <g id="patch_30">
    <path d="M 468.95 546.28 
L 468.95 333.96 
" style="fill: none; stroke: #000000; stroke-width: 0.8; stroke-linejoin: miter; stroke-linecap: square"/>
   </g>
   <g id="patch_31">
    <path d="M 840.63 546.28 
L 840.63 333.96 
" style="fill: none; stroke: #000000; stroke-width: 0.8; stroke-linejoin: miter; stroke-linecap: square"/>
   </g>
   <g id="patch_32">
    <path d="M 468.95 546.28 
L 840.63 546.28 
" style="fill: none; stroke: #000000; stroke-width: 0.8; stroke-linejoin: miter; stroke-linecap: square"/>
   </g>
   <g id="patch_33">
    <path d="M 468.95 333.96 
L 840.63 333.96 
" style="fill: none; stroke: #000000; stroke-width: 0.8; stroke-linejoin: miter; stroke-linecap: square"/>
   </g>
   <g id="text_70">
    <text style="font: 12px 'Noto Sans CJK JP'; text-anchor: middle" x="654.79" y="327.96" transform="rotate(-0 654.79 327.96)">MongoDB 3개 · 기존 스레드 실행 재개</text>
   </g>
   <g id="legend_3">
    <g id="patch_34">
     <path d="M 712.565625 368.61 
L 834.33 368.61 
Q 836.13 368.61 836.13 366.81 
L 836.13 340.26 
Q 836.13 338.46 834.33 338.46 
L 712.565625 338.46 
Q 710.765625 338.46 710.765625 340.26 
L 710.765625 366.81 
Q 710.765625 368.61 712.565625 368.61 
z
" style="fill: #ffffff; opacity: 0.8; stroke: #cccccc; stroke-linejoin: miter"/>
    </g>
    <g id="line2d_111">
     <path d="M 714.365625 346.073437 
L 732.365625 346.073437 
" style="fill: none; stroke: #1f77b4; stroke-width: 1.8; stroke-linecap: square"/>
    </g>
    <g id="text_71">
     <text style="font: 9px 'Noto Sans CJK JP'; text-anchor: start" x="739.565625" y="349.223437" transform="rotate(-0 739.565625 349.223437)">기존 정책</text>
    </g>
    <g id="line2d_112">
     <path d="M 714.365625 359.798437 
L 732.365625 359.798437 
" style="fill: none; stroke-dasharray: 6.66,2.88; stroke-dashoffset: 0; stroke: #ff7f0e; stroke-width: 1.8"/>
    </g>
    <g id="text_72">
     <text style="font: 9px 'Noto Sans CJK JP'; text-anchor: start" x="739.565625" y="362.948437" transform="rotate(-0 739.565625 362.948437)">응답 헤더 후 IT0/T1 추가</text>
    </g>
   </g>
  </g>
  <g id="text_73">
   <text style="font: 12px 'Noto Sans CJK JP'; text-anchor: middle" x="427.8" y="16.75125" transform="rotate(-0 427.8 16.75125)">스레드 첫 실행과 재개를 분리한 미스 발생률</text>
  </g>
  <g id="text_74">
   <text style="font: 9px 'Noto Sans CJK JP'; text-anchor: middle" x="427.8" y="594.72" transform="rotate(-0 427.8 594.72)">관측 시작 전에 실행되던 스레드 등 기원을 확정할 수 없는 구간은 이 그림에서 제외. 노출 시간이 없는 구간은 결측.</text>
  </g>
 </g>
 <defs>
  <clipPath id="p1cefdaf8b0">
   <rect x="42.35" y="62.88" width="371.68" height="212.32"/>
  </clipPath>
  <clipPath id="p815b40993d">
   <rect x="468.95" y="62.88" width="371.68" height="212.32"/>
  </clipPath>
  <clipPath id="p929cdc2670">
   <rect x="42.35" y="333.96" width="371.68" height="212.32"/>
  </clipPath>
  <clipPath id="p2f0656aefa">
   <rect x="468.95" y="333.96" width="371.68" height="212.32"/>
  </clipPath>
 </defs>
</svg>
