<?xml version="1.0" encoding="utf-8" standalone="no"?>
<!DOCTYPE svg PUBLIC "-//W3C//DTD SVG 1.1//EN"
  "http://www.w3.org/Graphics/SVG/1.1/DTD/svg11.dtd">
<svg xmlns:xlink="http://www.w3.org/1999/xlink" width="936pt" height="288pt" viewBox="0 0 936 288" xmlns="http://www.w3.org/2000/svg" version="1.1">
 <metadata>
  <rdf:RDF xmlns:dc="http://purl.org/dc/elements/1.1/" xmlns:cc="http://creativecommons.org/ns#" xmlns:rdf="http://www.w3.org/1999/02/22-rdf-syntax-ns#">
   <cc:Work>
    <dc:type rdf:resource="http://purl.org/dc/dcmitype/StillImage"/>
    <dc:date>2026-09-30T03:52:29.799103</dc:date>
    <dc:format>image/svg+xml</dc:format>
    <dc:creator>
     <cc:Agent>
      <dc:title>Matplotlib v3.6.3, https://matplotlib.org/</dc:title>
     </cc:Agent>
    </dc:creator>
   </cc:Work>
  </rdf:RDF>
 </metadata>
 <defs>
  <style type="text/css">*{stroke-linejoin: round; stroke-linecap: butt}</style>
 </defs>
 <g id="figure_1">
  <g id="patch_1">
   <path d="M 0 288 
L 936 288 
L 936 0 
L 0 0 
z
" style="fill: #ffffff"/>
  </g>
  <g id="axes_1">
   <g id="patch_2">
    <path d="M 62.017428 253.610842 
L 308.84008 253.610842 
L 308.84008 35.732595 
L 62.017428 35.732595 
z
" style="fill: #ffffff"/>
   </g>
   <g id="matplotlib.axis_1">
    <g id="xtick_1">
     <g id="line2d_1">
      <path d="M 69.47222 253.610842 
L 69.47222 35.732595 
" clip-path="url(#p55488a8833)" style="fill: none; stroke: #b0b0b0; stroke-opacity: 0.2; stroke-width: 0.8; stroke-linecap: square"/>
     </g>
     <g id="line2d_2">
      <defs>
       <path id="m51d49e433a" d="M 0 0 
L 0 3.5 
" style="stroke: #000000; stroke-width: 0.8"/>
      </defs>
      <g>
       <use xlink:href="#m51d49e433a" x="69.47222" y="253.610842" style="stroke: #000000; stroke-width: 0.8"/>
      </g>
     </g>
     <g id="text_1">
      <!-- 0.97 -->
      <g transform="translate(58.339408 268.20928) scale(0.1 -0.1)">
       <defs>
        <path id="DejaVuSans-30" d="M 2034 4250 
Q 1547 4250 1301 3770 
Q 1056 3291 1056 2328 
Q 1056 1369 1301 889 
Q 1547 409 2034 409 
Q 2525 409 2770 889 
Q 3016 1369 3016 2328 
Q 3016 3291 2770 3770 
Q 2525 4250 2034 4250 
z
M 2034 4750 
Q 2819 4750 3233 4129 
Q 3647 3509 3647 2328 
Q 3647 1150 3233 529 
Q 2819 -91 2034 -91 
Q 1250 -91 836 529 
Q 422 1150 422 2328 
Q 422 3509 836 4129 
Q 1250 4750 2034 4750 
z
" transform="scale(0.015625)"/>
        <path id="DejaVuSans-2e" d="M 684 794 
L 1344 794 
L 1344 0 
L 684 0 
L 684 794 
z
" transform="scale(0.015625)"/>
        <path id="DejaVuSans-39" d="M 703 97 
L 703 672 
Q 941 559 1184 500 
Q 1428 441 1663 441 
Q 2288 441 2617 861 
Q 2947 1281 2994 2138 
Q 2813 1869 2534 1725 
Q 2256 1581 1919 1581 
Q 1219 1581 811 2004 
Q 403 2428 403 3163 
Q 403 3881 828 4315 
Q 1253 4750 1959 4750 
Q 2769 4750 3195 4129 
Q 3622 3509 3622 2328 
Q 3622 1225 3098 567 
Q 2575 -91 1691 -91 
Q 1453 -91 1209 -44 
Q 966 3 703 97 
z
M 1959 2075 
Q 2384 2075 2632 2365 
Q 2881 2656 2881 3163 
Q 2881 3666 2632 3958 
Q 2384 4250 1959 4250 
Q 1534 4250 1286 3958 
Q 1038 3666 1038 3163 
Q 1038 2656 1286 2365 
Q 1534 2075 1959 2075 
z
" transform="scale(0.015625)"/>
        <path id="DejaVuSans-37" d="M 525 4666 
L 3525 4666 
L 3525 4397 
L 1831 0 
L 1172 0 
L 2766 4134 
L 525 4134 
L 525 4666 
z
" transform="scale(0.015625)"/>
       </defs>
       <use xlink:href="#DejaVuSans-30"/>
       <use xlink:href="#DejaVuSans-2e" x="63.623047"/>
       <use xlink:href="#DejaVuSans-39" x="95.410156"/>
       <use xlink:href="#DejaVuSans-37" x="159.033203"/>
      </g>
     </g>
    </g>
    <g id="xtick_2">
     <g id="line2d_3">
      <path d="M 103.806237 253.610842 
L 103.806237 35.732595 
" clip-path="url(#p55488a8833)" style="fill: none; stroke: #b0b0b0; stroke-opacity: 0.2; stroke-width: 0.8; stroke-linecap: square"/>
     </g>
     <g id="line2d_4">
      <g>
       <use xlink:href="#m51d49e433a" x="103.806237" y="253.610842" style="stroke: #000000; stroke-width: 0.8"/>
      </g>
     </g>
     <g id="text_2">
      <!-- 0.98 -->
      <g transform="translate(92.673425 268.20928) scale(0.1 -0.1)">
       <defs>
        <path id="DejaVuSans-38" d="M 2034 2216 
Q 1584 2216 1326 1975 
Q 1069 1734 1069 1313 
Q 1069 891 1326 650 
Q 1584 409 2034 409 
Q 2484 409 2743 651 
Q 3003 894 3003 1313 
Q 3003 1734 2745 1975 
Q 2488 2216 2034 2216 
z
M 1403 2484 
Q 997 2584 770 2862 
Q 544 3141 544 3541 
Q 544 4100 942 4425 
Q 1341 4750 2034 4750 
Q 2731 4750 3128 4425 
Q 3525 4100 3525 3541 
Q 3525 3141 3298 2862 
Q 3072 2584 2669 2484 
Q 3125 2378 3379 2068 
Q 3634 1759 3634 1313 
Q 3634 634 3220 271 
Q 2806 -91 2034 -91 
Q 1263 -91 848 271 
Q 434 634 434 1313 
Q 434 1759 690 2068 
Q 947 2378 1403 2484 
z
M 1172 3481 
Q 1172 3119 1398 2916 
Q 1625 2713 2034 2713 
Q 2441 2713 2670 2916 
Q 2900 3119 2900 3481 
Q 2900 3844 2670 4047 
Q 2441 4250 2034 4250 
Q 1625 4250 1398 4047 
Q 1172 3844 1172 3481 
z
" transform="scale(0.015625)"/>
       </defs>
       <use xlink:href="#DejaVuSans-30"/>
       <use xlink:href="#DejaVuSans-2e" x="63.623047"/>
       <use xlink:href="#DejaVuSans-39" x="95.410156"/>
       <use xlink:href="#DejaVuSans-38" x="159.033203"/>
      </g>
     </g>
    </g>
    <g id="xtick_3">
     <g id="line2d_5">
      <path d="M 138.140254 253.610842 
L 138.140254 35.732595 
" clip-path="url(#p55488a8833)" style="fill: none; stroke: #b0b0b0; stroke-opacity: 0.2; stroke-width: 0.8; stroke-linecap: square"/>
     </g>
     <g id="line2d_6">
      <g>
       <use xlink:href="#m51d49e433a" x="138.140254" y="253.610842" style="stroke: #000000; stroke-width: 0.8"/>
      </g>
     </g>
     <g id="text_3">
      <!-- 0.99 -->
      <g transform="translate(127.007442 268.20928) scale(0.1 -0.1)">
       <use xlink:href="#DejaVuSans-30"/>
       <use xlink:href="#DejaVuSans-2e" x="63.623047"/>
       <use xlink:href="#DejaVuSans-39" x="95.410156"/>
       <use xlink:href="#DejaVuSans-39" x="159.033203"/>
      </g>
     </g>
    </g>
    <g id="xtick_4">
     <g id="line2d_7">
      <path d="M 172.474271 253.610842 
L 172.474271 35.732595 
" clip-path="url(#p55488a8833)" style="fill: none; stroke: #b0b0b0; stroke-opacity: 0.2; stroke-width: 0.8; stroke-linecap: square"/>
     </g>
     <g id="line2d_8">
      <g>
       <use xlink:href="#m51d49e433a" x="172.474271" y="253.610842" style="stroke: #000000; stroke-width: 0.8"/>
      </g>
     </g>
     <g id="text_4">
      <!-- 1.00 -->
      <g transform="translate(161.341459 268.20928) scale(0.1 -0.1)">
       <defs>
        <path id="DejaVuSans-31" d="M 794 531 
L 1825 531 
L 1825 4091 
L 703 3866 
L 703 4441 
L 1819 4666 
L 2450 4666 
L 2450 531 
L 3481 531 
L 3481 0 
L 794 0 
L 794 531 
z
" transform="scale(0.015625)"/>
       </defs>
       <use xlink:href="#DejaVuSans-31"/>
       <use xlink:href="#DejaVuSans-2e" x="63.623047"/>
       <use xlink:href="#DejaVuSans-30" x="95.410156"/>
       <use xlink:href="#DejaVuSans-30" x="159.033203"/>
      </g>
     </g>
    </g>
    <g id="xtick_5">
     <g id="line2d_9">
      <path d="M 206.808288 253.610842 
L 206.808288 35.732595 
" clip-path="url(#p55488a8833)" style="fill: none; stroke: #b0b0b0; stroke-opacity: 0.2; stroke-width: 0.8; stroke-linecap: square"/>
     </g>
     <g id="line2d_10">
      <g>
       <use xlink:href="#m51d49e433a" x="206.808288" y="253.610842" style="stroke: #000000; stroke-width: 0.8"/>
      </g>
     </g>
     <g id="text_5">
      <!-- 1.01 -->
      <g transform="translate(195.675475 268.20928) scale(0.1 -0.1)">
       <use xlink:href="#DejaVuSans-31"/>
       <use xlink:href="#DejaVuSans-2e" x="63.623047"/>
       <use xlink:href="#DejaVuSans-30" x="95.410156"/>
       <use xlink:href="#DejaVuSans-31" x="159.033203"/>
      </g>
     </g>
    </g>
    <g id="xtick_6">
     <g id="line2d_11">
      <path d="M 241.142305 253.610842 
L 241.142305 35.732595 
" clip-path="url(#p55488a8833)" style="fill: none; stroke: #b0b0b0; stroke-opacity: 0.2; stroke-width: 0.8; stroke-linecap: square"/>
     </g>
     <g id="line2d_12">
      <g>
       <use xlink:href="#m51d49e433a" x="241.142305" y="253.610842" style="stroke: #000000; stroke-width: 0.8"/>
      </g>
     </g>
     <g id="text_6">
      <!-- 1.02 -->
      <g transform="translate(230.009492 268.20928) scale(0.1 -0.1)">
       <defs>
        <path id="DejaVuSans-32" d="M 1228 531 
L 3431 531 
L 3431 0 
L 469 0 
L 469 531 
Q 828 903 1448 1529 
Q 2069 2156 2228 2338 
Q 2531 2678 2651 2914 
Q 2772 3150 2772 3378 
Q 2772 3750 2511 3984 
Q 2250 4219 1831 4219 
Q 1534 4219 1204 4116 
Q 875 4013 500 3803 
L 500 4441 
Q 881 4594 1212 4672 
Q 1544 4750 1819 4750 
Q 2544 4750 2975 4387 
Q 3406 4025 3406 3419 
Q 3406 3131 3298 2873 
Q 3191 2616 2906 2266 
Q 2828 2175 2409 1742 
Q 1991 1309 1228 531 
z
" transform="scale(0.015625)"/>
       </defs>
       <use xlink:href="#DejaVuSans-31"/>
       <use xlink:href="#DejaVuSans-2e" x="63.623047"/>
       <use xlink:href="#DejaVuSans-30" x="95.410156"/>
       <use xlink:href="#DejaVuSans-32" x="159.033203"/>
      </g>
     </g>
    </g>
    <g id="xtick_7">
     <g id="line2d_13">
      <path d="M 275.476322 253.610842 
L 275.476322 35.732595 
" clip-path="url(#p55488a8833)" style="fill: none; stroke: #b0b0b0; stroke-opacity: 0.2; stroke-width: 0.8; stroke-linecap: square"/>
     </g>
     <g id="line2d_14">
      <g>
       <use xlink:href="#m51d49e433a" x="275.476322" y="253.610842" style="stroke: #000000; stroke-width: 0.8"/>
      </g>
     </g>
     <g id="text_7">
      <!-- 1.03 -->
      <g transform="translate(264.343509 268.20928) scale(0.1 -0.1)">
       <defs>
        <path id="DejaVuSans-33" d="M 2597 2516 
Q 3050 2419 3304 2112 
Q 3559 1806 3559 1356 
Q 3559 666 3084 287 
Q 2609 -91 1734 -91 
Q 1441 -91 1130 -33 
Q 819 25 488 141 
L 488 750 
Q 750 597 1062 519 
Q 1375 441 1716 441 
Q 2309 441 2620 675 
Q 2931 909 2931 1356 
Q 2931 1769 2642 2001 
Q 2353 2234 1838 2234 
L 1294 2234 
L 1294 2753 
L 1863 2753 
Q 2328 2753 2575 2939 
Q 2822 3125 2822 3475 
Q 2822 3834 2567 4026 
Q 2313 4219 1838 4219 
Q 1578 4219 1281 4162 
Q 984 4106 628 3988 
L 628 4550 
Q 988 4650 1302 4700 
Q 1616 4750 1894 4750 
Q 2613 4750 3031 4423 
Q 3450 4097 3450 3541 
Q 3450 3153 3228 2886 
Q 3006 2619 2597 2516 
z
" transform="scale(0.015625)"/>
       </defs>
       <use xlink:href="#DejaVuSans-31"/>
       <use xlink:href="#DejaVuSans-2e" x="63.623047"/>
       <use xlink:href="#DejaVuSans-30" x="95.410156"/>
       <use xlink:href="#DejaVuSans-33" x="159.033203"/>
      </g>
     </g>
    </g>
   </g>
   <g id="matplotlib.axis_2">
    <g id="ytick_1">
     <g id="line2d_15">
      <defs>
       <path id="m4314cb21dc" d="M 0 0 
L -3.5 0 
" style="stroke: #000000; stroke-width: 0.8"/>
      </defs>
      <g>
       <use xlink:href="#m4314cb21dc" x="62.017428" y="45.636152" style="stroke: #000000; stroke-width: 0.8"/>
      </g>
     </g>
     <g id="text_8">
      <!-- extra_t1 -->
      <g transform="translate(13.678365 49.296308) scale(0.1 -0.1)">
       <defs>
        <path id="DejaVuSans-65" d="M 3597 1894 
L 3597 1613 
L 953 1613 
Q 991 1019 1311 708 
Q 1631 397 2203 397 
Q 2534 397 2845 478 
Q 3156 559 3463 722 
L 3463 178 
Q 3153 47 2828 -22 
Q 2503 -91 2169 -91 
Q 1331 -91 842 396 
Q 353 884 353 1716 
Q 353 2575 817 3079 
Q 1281 3584 2069 3584 
Q 2775 3584 3186 3129 
Q 3597 2675 3597 1894 
z
M 3022 2063 
Q 3016 2534 2758 2815 
Q 2500 3097 2075 3097 
Q 1594 3097 1305 2825 
Q 1016 2553 972 2059 
L 3022 2063 
z
" transform="scale(0.015625)"/>
        <path id="DejaVuSans-78" d="M 3513 3500 
L 2247 1797 
L 3578 0 
L 2900 0 
L 1881 1375 
L 863 0 
L 184 0 
L 1544 1831 
L 300 3500 
L 978 3500 
L 1906 2253 
L 2834 3500 
L 3513 3500 
z
" transform="scale(0.015625)"/>
        <path id="DejaVuSans-74" d="M 1172 4494 
L 1172 3500 
L 2356 3500 
L 2356 3053 
L 1172 3053 
L 1172 1153 
Q 1172 725 1289 603 
Q 1406 481 1766 481 
L 2356 481 
L 2356 0 
L 1766 0 
Q 1100 0 847 248 
Q 594 497 594 1153 
L 594 3053 
L 172 3053 
L 172 3500 
L 594 3500 
L 594 4494 
L 1172 4494 
z
" transform="scale(0.015625)"/>
        <path id="DejaVuSans-72" d="M 2631 2963 
Q 2534 3019 2420 3045 
Q 2306 3072 2169 3072 
Q 1681 3072 1420 2755 
Q 1159 2438 1159 1844 
L 1159 0 
L 581 0 
L 581 3500 
L 1159 3500 
L 1159 2956 
Q 1341 3275 1631 3429 
Q 1922 3584 2338 3584 
Q 2397 3584 2469 3576 
Q 2541 3569 2628 3553 
L 2631 2963 
z
" transform="scale(0.015625)"/>
        <path id="DejaVuSans-61" d="M 2194 1759 
Q 1497 1759 1228 1600 
Q 959 1441 959 1056 
Q 959 750 1161 570 
Q 1363 391 1709 391 
Q 2188 391 2477 730 
Q 2766 1069 2766 1631 
L 2766 1759 
L 2194 1759 
z
M 3341 1997 
L 3341 0 
L 2766 0 
L 2766 531 
Q 2569 213 2275 61 
Q 1981 -91 1556 -91 
Q 1019 -91 701 211 
Q 384 513 384 1019 
Q 384 1609 779 1909 
Q 1175 2209 1959 2209 
L 2766 2209 
L 2766 2266 
Q 2766 2663 2505 2880 
Q 2244 3097 1772 3097 
Q 1472 3097 1187 3025 
Q 903 2953 641 2809 
L 641 3341 
Q 956 3463 1253 3523 
Q 1550 3584 1831 3584 
Q 2591 3584 2966 3190 
Q 3341 2797 3341 1997 
z
" transform="scale(0.015625)"/>
        <path id="DejaVuSans-5f" d="M 3263 -1063 
L 3263 -1509 
L -63 -1509 
L -63 -1063 
L 3263 -1063 
z
" transform="scale(0.015625)"/>
       </defs>
       <use xlink:href="#DejaVuSans-65"/>
       <use xlink:href="#DejaVuSans-78" x="59.773438"/>
       <use xlink:href="#DejaVuSans-74" x="118.953125"/>
       <use xlink:href="#DejaVuSans-72" x="158.162109"/>
       <use xlink:href="#DejaVuSans-61" x="199.275391"/>
       <use xlink:href="#DejaVuSans-5f" x="260.554688"/>
       <use xlink:href="#DejaVuSans-74" x="310.554688"/>
       <use xlink:href="#DejaVuSans-31" x="349.763672"/>
      </g>
     </g>
    </g>
    <g id="ytick_2">
     <g id="line2d_16">
      <g>
       <use xlink:href="#m4314cb21dc" x="62.017428" y="243.707286" style="stroke: #000000; stroke-width: 0.8"/>
      </g>
     </g>
     <g id="text_9">
      <!-- latency_t1 -->
      <g transform="translate(3.00024 247.506505) scale(0.1 -0.1)">
       <defs>
        <path id="DejaVuSans-6c" d="M 603 4863 
L 1178 4863 
L 1178 0 
L 603 0 
L 603 4863 
z
" transform="scale(0.015625)"/>
        <path id="DejaVuSans-6e" d="M 3513 2113 
L 3513 0 
L 2938 0 
L 2938 2094 
Q 2938 2591 2744 2837 
Q 2550 3084 2163 3084 
Q 1697 3084 1428 2787 
Q 1159 2491 1159 1978 
L 1159 0 
L 581 0 
L 581 3500 
L 1159 3500 
L 1159 2956 
Q 1366 3272 1645 3428 
Q 1925 3584 2291 3584 
Q 2894 3584 3203 3211 
Q 3513 2838 3513 2113 
z
" transform="scale(0.015625)"/>
        <path id="DejaVuSans-63" d="M 3122 3366 
L 3122 2828 
Q 2878 2963 2633 3030 
Q 2388 3097 2138 3097 
Q 1578 3097 1268 2742 
Q 959 2388 959 1747 
Q 959 1106 1268 751 
Q 1578 397 2138 397 
Q 2388 397 2633 464 
Q 2878 531 3122 666 
L 3122 134 
Q 2881 22 2623 -34 
Q 2366 -91 2075 -91 
Q 1284 -91 818 406 
Q 353 903 353 1747 
Q 353 2603 823 3093 
Q 1294 3584 2113 3584 
Q 2378 3584 2631 3529 
Q 2884 3475 3122 3366 
z
" transform="scale(0.015625)"/>
        <path id="DejaVuSans-79" d="M 2059 -325 
Q 1816 -950 1584 -1140 
Q 1353 -1331 966 -1331 
L 506 -1331 
L 506 -850 
L 844 -850 
Q 1081 -850 1212 -737 
Q 1344 -625 1503 -206 
L 1606 56 
L 191 3500 
L 800 3500 
L 1894 763 
L 2988 3500 
L 3597 3500 
L 2059 -325 
z
" transform="scale(0.015625)"/>
       </defs>
       <use xlink:href="#DejaVuSans-6c"/>
       <use xlink:href="#DejaVuSans-61" x="27.783203"/>
       <use xlink:href="#DejaVuSans-74" x="89.0625"/>
       <use xlink:href="#DejaVuSans-65" x="128.271484"/>
       <use xlink:href="#DejaVuSans-6e" x="189.794922"/>
       <use xlink:href="#DejaVuSans-63" x="253.173828"/>
       <use xlink:href="#DejaVuSans-79" x="308.154297"/>
       <use xlink:href="#DejaVuSans-5f" x="367.333984"/>
       <use xlink:href="#DejaVuSans-74" x="417.333984"/>
       <use xlink:href="#DejaVuSans-31" x="456.542969"/>
      </g>
     </g>
    </g>
   </g>
   <g id="LineCollection_1">
    <path d="M 73.806673 45.636152 
L 282.792857 45.636152 
" clip-path="url(#p55488a8833)" style="fill: none; stroke: #1f77b4; stroke-width: 1.5"/>
   </g>
   <g id="line2d_17">
    <defs>
     <path id="mae9053bc54" d="M 0 3 
L 0 -3 
" style="stroke: #1f77b4"/>
    </defs>
    <g clip-path="url(#p55488a8833)">
     <use xlink:href="#mae9053bc54" x="73.806673" y="45.636152" style="fill: #1f77b4; stroke: #1f77b4"/>
    </g>
   </g>
   <g id="line2d_18">
    <g clip-path="url(#p55488a8833)">
     <use xlink:href="#mae9053bc54" x="282.792857" y="45.636152" style="fill: #1f77b4; stroke: #1f77b4"/>
    </g>
   </g>
   <g id="LineCollection_2">
    <path d="M 73.236639 243.707286 
L 297.620869 243.707286 
" clip-path="url(#p55488a8833)" style="fill: none; stroke: #ff7f0e; stroke-width: 1.5"/>
   </g>
   <g id="line2d_19">
    <defs>
     <path id="m1c3b50a7c8" d="M 0 3 
L 0 -3 
" style="stroke: #ff7f0e"/>
    </defs>
    <g clip-path="url(#p55488a8833)">
     <use xlink:href="#m1c3b50a7c8" x="73.236639" y="243.707286" style="fill: #ff7f0e; stroke: #ff7f0e"/>
    </g>
   </g>
   <g id="line2d_20">
    <g clip-path="url(#p55488a8833)">
     <use xlink:href="#m1c3b50a7c8" x="297.620869" y="243.707286" style="fill: #ff7f0e; stroke: #ff7f0e"/>
    </g>
   </g>
   <g id="line2d_21">
    <path d="M 172.474271 253.610842 
L 172.474271 35.732595 
" clip-path="url(#p55488a8833)" style="fill: none; stroke: #888888; stroke-width: 0.8; stroke-linecap: square"/>
   </g>
   <g id="line2d_22">
    <defs>
     <path id="m3f2d581cd9" d="M 0 3 
C 0.795609 3 1.55874 2.683901 2.12132 2.12132 
C 2.683901 1.55874 3 0.795609 3 0 
C 3 -0.795609 2.683901 -1.55874 2.12132 -2.12132 
C 1.55874 -2.683901 0.795609 -3 0 -3 
C -0.795609 -3 -1.55874 -2.683901 -2.12132 -2.12132 
C -2.683901 -1.55874 -3 -0.795609 -3 0 
C -3 0.795609 -2.683901 1.55874 -2.12132 2.12132 
C -1.55874 2.683901 -0.795609 3 0 3 
z
" style="stroke: #1f77b4"/>
    </defs>
    <g clip-path="url(#p55488a8833)">
     <use xlink:href="#m3f2d581cd9" x="176.712006" y="45.636152" style="fill: #1f77b4; stroke: #1f77b4"/>
    </g>
   </g>
   <g id="line2d_23">
    <defs>
     <path id="m08a91cac7a" d="M 0 3 
C 0.795609 3 1.55874 2.683901 2.12132 2.12132 
C 2.683901 1.55874 3 0.795609 3 0 
C 3 -0.795609 2.683901 -1.55874 2.12132 -2.12132 
C 1.55874 -2.683901 0.795609 -3 0 -3 
C -0.795609 -3 -1.55874 -2.683901 -2.12132 -2.12132 
C -2.683901 -1.55874 -3 -0.795609 -3 0 
C -3 0.795609 -2.683901 1.55874 -2.12132 2.12132 
C -1.55874 2.683901 -0.795609 3 0 3 
z
" style="stroke: #ff7f0e"/>
    </defs>
    <g clip-path="url(#p55488a8833)">
     <use xlink:href="#m08a91cac7a" x="183.602128" y="243.707286" style="fill: #ff7f0e; stroke: #ff7f0e"/>
    </g>
   </g>
   <g id="patch_3">
    <path d="M 62.017428 253.610842 
L 62.017428 35.732595 
" style="fill: none; stroke: #000000; stroke-width: 0.8; stroke-linejoin: miter; stroke-linecap: square"/>
   </g>
   <g id="patch_4">
    <path d="M 62.017427 253.610842 
L 308.84008 253.610842 
" style="fill: none; stroke: #000000; stroke-width: 0.8; stroke-linejoin: miter; stroke-linecap: square"/>
   </g>
   <g id="text_10">
    <!-- Throughput speedup -->
    <g transform="translate(122.935004 29.732595) scale(0.12 -0.12)">
     <defs>
      <path id="DejaVuSans-54" d="M -19 4666 
L 3928 4666 
L 3928 4134 
L 2272 4134 
L 2272 0 
L 1638 0 
L 1638 4134 
L -19 4134 
L -19 4666 
z
" transform="scale(0.015625)"/>
      <path id="DejaVuSans-68" d="M 3513 2113 
L 3513 0 
L 2938 0 
L 2938 2094 
Q 2938 2591 2744 2837 
Q 2550 3084 2163 3084 
Q 1697 3084 1428 2787 
Q 1159 2491 1159 1978 
L 1159 0 
L 581 0 
L 581 4863 
L 1159 4863 
L 1159 2956 
Q 1366 3272 1645 3428 
Q 1925 3584 2291 3584 
Q 2894 3584 3203 3211 
Q 3513 2838 3513 2113 
z
" transform="scale(0.015625)"/>
      <path id="DejaVuSans-6f" d="M 1959 3097 
Q 1497 3097 1228 2736 
Q 959 2375 959 1747 
Q 959 1119 1226 758 
Q 1494 397 1959 397 
Q 2419 397 2687 759 
Q 2956 1122 2956 1747 
Q 2956 2369 2687 2733 
Q 2419 3097 1959 3097 
z
M 1959 3584 
Q 2709 3584 3137 3096 
Q 3566 2609 3566 1747 
Q 3566 888 3137 398 
Q 2709 -91 1959 -91 
Q 1206 -91 779 398 
Q 353 888 353 1747 
Q 353 2609 779 3096 
Q 1206 3584 1959 3584 
z
" transform="scale(0.015625)"/>
      <path id="DejaVuSans-75" d="M 544 1381 
L 544 3500 
L 1119 3500 
L 1119 1403 
Q 1119 906 1312 657 
Q 1506 409 1894 409 
Q 2359 409 2629 706 
Q 2900 1003 2900 1516 
L 2900 3500 
L 3475 3500 
L 3475 0 
L 2900 0 
L 2900 538 
Q 2691 219 2414 64 
Q 2138 -91 1772 -91 
Q 1169 -91 856 284 
Q 544 659 544 1381 
z
M 1991 3584 
L 1991 3584 
z
" transform="scale(0.015625)"/>
      <path id="DejaVuSans-67" d="M 2906 1791 
Q 2906 2416 2648 2759 
Q 2391 3103 1925 3103 
Q 1463 3103 1205 2759 
Q 947 2416 947 1791 
Q 947 1169 1205 825 
Q 1463 481 1925 481 
Q 2391 481 2648 825 
Q 2906 1169 2906 1791 
z
M 3481 434 
Q 3481 -459 3084 -895 
Q 2688 -1331 1869 -1331 
Q 1566 -1331 1297 -1286 
Q 1028 -1241 775 -1147 
L 775 -588 
Q 1028 -725 1275 -790 
Q 1522 -856 1778 -856 
Q 2344 -856 2625 -561 
Q 2906 -266 2906 331 
L 2906 616 
Q 2728 306 2450 153 
Q 2172 0 1784 0 
Q 1141 0 747 490 
Q 353 981 353 1791 
Q 353 2603 747 3093 
Q 1141 3584 1784 3584 
Q 2172 3584 2450 3431 
Q 2728 3278 2906 2969 
L 2906 3500 
L 3481 3500 
L 3481 434 
z
" transform="scale(0.015625)"/>
      <path id="DejaVuSans-70" d="M 1159 525 
L 1159 -1331 
L 581 -1331 
L 581 3500 
L 1159 3500 
L 1159 2969 
Q 1341 3281 1617 3432 
Q 1894 3584 2278 3584 
Q 2916 3584 3314 3078 
Q 3713 2572 3713 1747 
Q 3713 922 3314 415 
Q 2916 -91 2278 -91 
Q 1894 -91 1617 61 
Q 1341 213 1159 525 
z
M 3116 1747 
Q 3116 2381 2855 2742 
Q 2594 3103 2138 3103 
Q 1681 3103 1420 2742 
Q 1159 2381 1159 1747 
Q 1159 1113 1420 752 
Q 1681 391 2138 391 
Q 2594 391 2855 752 
Q 3116 1113 3116 1747 
z
" transform="scale(0.015625)"/>
      <path id="DejaVuSans-20" transform="scale(0.015625)"/>
      <path id="DejaVuSans-73" d="M 2834 3397 
L 2834 2853 
Q 2591 2978 2328 3040 
Q 2066 3103 1784 3103 
Q 1356 3103 1142 2972 
Q 928 2841 928 2578 
Q 928 2378 1081 2264 
Q 1234 2150 1697 2047 
L 1894 2003 
Q 2506 1872 2764 1633 
Q 3022 1394 3022 966 
Q 3022 478 2636 193 
Q 2250 -91 1575 -91 
Q 1294 -91 989 -36 
Q 684 19 347 128 
L 347 722 
Q 666 556 975 473 
Q 1284 391 1588 391 
Q 1994 391 2212 530 
Q 2431 669 2431 922 
Q 2431 1156 2273 1281 
Q 2116 1406 1581 1522 
L 1381 1569 
Q 847 1681 609 1914 
Q 372 2147 372 2553 
Q 372 3047 722 3315 
Q 1072 3584 1716 3584 
Q 2034 3584 2315 3537 
Q 2597 3491 2834 3397 
z
" transform="scale(0.015625)"/>
      <path id="DejaVuSans-64" d="M 2906 2969 
L 2906 4863 
L 3481 4863 
L 3481 0 
L 2906 0 
L 2906 525 
Q 2725 213 2448 61 
Q 2172 -91 1784 -91 
Q 1150 -91 751 415 
Q 353 922 353 1747 
Q 353 2572 751 3078 
Q 1150 3584 1784 3584 
Q 2172 3584 2448 3432 
Q 2725 3281 2906 2969 
z
M 947 1747 
Q 947 1113 1208 752 
Q 1469 391 1925 391 
Q 2381 391 2643 752 
Q 2906 1113 2906 1747 
Q 2906 2381 2643 2742 
Q 2381 3103 1925 3103 
Q 1469 3103 1208 2742 
Q 947 2381 947 1747 
z
" transform="scale(0.015625)"/>
     </defs>
     <use xlink:href="#DejaVuSans-54"/>
     <use xlink:href="#DejaVuSans-68" x="61.083984"/>
     <use xlink:href="#DejaVuSans-72" x="124.462891"/>
     <use xlink:href="#DejaVuSans-6f" x="163.326172"/>
     <use xlink:href="#DejaVuSans-75" x="224.507812"/>
     <use xlink:href="#DejaVuSans-67" x="287.886719"/>
     <use xlink:href="#DejaVuSans-68" x="351.363281"/>
     <use xlink:href="#DejaVuSans-70" x="414.742188"/>
     <use xlink:href="#DejaVuSans-75" x="478.21875"/>
     <use xlink:href="#DejaVuSans-74" x="541.597656"/>
     <use xlink:href="#DejaVuSans-20" x="580.806641"/>
     <use xlink:href="#DejaVuSans-73" x="612.59375"/>
     <use xlink:href="#DejaVuSans-70" x="664.693359"/>
     <use xlink:href="#DejaVuSans-65" x="728.169922"/>
     <use xlink:href="#DejaVuSans-65" x="789.693359"/>
     <use xlink:href="#DejaVuSans-64" x="851.216797"/>
     <use xlink:href="#DejaVuSans-75" x="914.693359"/>
     <use xlink:href="#DejaVuSans-70" x="978.072266"/>
    </g>
   </g>
  </g>
  <g id="axes_2">
   <g id="patch_5">
    <path d="M 374.097268 253.610842 
L 620.91992 253.610842 
L 620.91992 35.732595 
L 374.097268 35.732595 
z
" style="fill: #ffffff"/>
   </g>
   <g id="matplotlib.axis_3">
    <g id="xtick_8">
     <g id="line2d_24">
      <path d="M 410.720356 253.610842 
L 410.720356 35.732595 
" clip-path="url(#p349a56cc56)" style="fill: none; stroke: #b0b0b0; stroke-opacity: 0.2; stroke-width: 0.8; stroke-linecap: square"/>
     </g>
     <g id="line2d_25">
      <g>
       <use xlink:href="#m51d49e433a" x="410.720356" y="253.610842" style="stroke: #000000; stroke-width: 0.8"/>
      </g>
     </g>
     <g id="text_11">
      <!-- −1.5 -->
      <g transform="translate(398.57895 268.20928) scale(0.1 -0.1)">
       <defs>
        <path id="DejaVuSans-2212" d="M 678 2272 
L 4684 2272 
L 4684 1741 
L 678 1741 
L 678 2272 
z
" transform="scale(0.015625)"/>
        <path id="DejaVuSans-35" d="M 691 4666 
L 3169 4666 
L 3169 4134 
L 1269 4134 
L 1269 2991 
Q 1406 3038 1543 3061 
Q 1681 3084 1819 3084 
Q 2600 3084 3056 2656 
Q 3513 2228 3513 1497 
Q 3513 744 3044 326 
Q 2575 -91 1722 -91 
Q 1428 -91 1123 -41 
Q 819 9 494 109 
L 494 744 
Q 775 591 1075 516 
Q 1375 441 1709 441 
Q 2250 441 2565 725 
Q 2881 1009 2881 1497 
Q 2881 1984 2565 2268 
Q 2250 2553 1709 2553 
Q 1456 2553 1204 2497 
Q 953 2441 691 2322 
L 691 4666 
z
" transform="scale(0.015625)"/>
       </defs>
       <use xlink:href="#DejaVuSans-2212"/>
       <use xlink:href="#DejaVuSans-31" x="83.789062"/>
       <use xlink:href="#DejaVuSans-2e" x="147.412109"/>
       <use xlink:href="#DejaVuSans-35" x="179.199219"/>
      </g>
     </g>
    </g>
    <g id="xtick_9">
     <g id="line2d_26">
      <path d="M 448.412107 253.610842 
L 448.412107 35.732595 
" clip-path="url(#p349a56cc56)" style="fill: none; stroke: #b0b0b0; stroke-opacity: 0.2; stroke-width: 0.8; stroke-linecap: square"/>
     </g>
     <g id="line2d_27">
      <g>
       <use xlink:href="#m51d49e433a" x="448.412107" y="253.610842" style="stroke: #000000; stroke-width: 0.8"/>
      </g>
     </g>
     <g id="text_12">
      <!-- −1.0 -->
      <g transform="translate(436.270701 268.20928) scale(0.1 -0.1)">
       <use xlink:href="#DejaVuSans-2212"/>
       <use xlink:href="#DejaVuSans-31" x="83.789062"/>
       <use xlink:href="#DejaVuSans-2e" x="147.412109"/>
       <use xlink:href="#DejaVuSans-30" x="179.199219"/>
      </g>
     </g>
    </g>
    <g id="xtick_10">
     <g id="line2d_28">
      <path d="M 486.103858 253.610842 
L 486.103858 35.732595 
" clip-path="url(#p349a56cc56)" style="fill: none; stroke: #b0b0b0; stroke-opacity: 0.2; stroke-width: 0.8; stroke-linecap: square"/>
     </g>
     <g id="line2d_29">
      <g>
       <use xlink:href="#m51d49e433a" x="486.103858" y="253.610842" style="stroke: #000000; stroke-width: 0.8"/>
      </g>
     </g>
     <g id="text_13">
      <!-- −0.5 -->
      <g transform="translate(473.962452 268.20928) scale(0.1 -0.1)">
       <use xlink:href="#DejaVuSans-2212"/>
       <use xlink:href="#DejaVuSans-30" x="83.789062"/>
       <use xlink:href="#DejaVuSans-2e" x="147.412109"/>
       <use xlink:href="#DejaVuSans-35" x="179.199219"/>
      </g>
     </g>
    </g>
    <g id="xtick_11">
     <g id="line2d_30">
      <path d="M 523.795609 253.610842 
L 523.795609 35.732595 
" clip-path="url(#p349a56cc56)" style="fill: none; stroke: #b0b0b0; stroke-opacity: 0.2; stroke-width: 0.8; stroke-linecap: square"/>
     </g>
     <g id="line2d_31">
      <g>
       <use xlink:href="#m51d49e433a" x="523.795609" y="253.610842" style="stroke: #000000; stroke-width: 0.8"/>
      </g>
     </g>
     <g id="text_14">
      <!-- 0.0 -->
      <g transform="translate(515.844046 268.20928) scale(0.1 -0.1)">
       <use xlink:href="#DejaVuSans-30"/>
       <use xlink:href="#DejaVuSans-2e" x="63.623047"/>
       <use xlink:href="#DejaVuSans-30" x="95.410156"/>
      </g>
     </g>
    </g>
    <g id="xtick_12">
     <g id="line2d_32">
      <path d="M 561.487359 253.610842 
L 561.487359 35.732595 
" clip-path="url(#p349a56cc56)" style="fill: none; stroke: #b0b0b0; stroke-opacity: 0.2; stroke-width: 0.8; stroke-linecap: square"/>
     </g>
     <g id="line2d_33">
      <g>
       <use xlink:href="#m51d49e433a" x="561.487359" y="253.610842" style="stroke: #000000; stroke-width: 0.8"/>
      </g>
     </g>
     <g id="text_15">
      <!-- 0.5 -->
      <g transform="translate(553.535797 268.20928) scale(0.1 -0.1)">
       <use xlink:href="#DejaVuSans-30"/>
       <use xlink:href="#DejaVuSans-2e" x="63.623047"/>
       <use xlink:href="#DejaVuSans-35" x="95.410156"/>
      </g>
     </g>
    </g>
    <g id="xtick_13">
     <g id="line2d_34">
      <path d="M 599.17911 253.610842 
L 599.17911 35.732595 
" clip-path="url(#p349a56cc56)" style="fill: none; stroke: #b0b0b0; stroke-opacity: 0.2; stroke-width: 0.8; stroke-linecap: square"/>
     </g>
     <g id="line2d_35">
      <g>
       <use xlink:href="#m51d49e433a" x="599.17911" y="253.610842" style="stroke: #000000; stroke-width: 0.8"/>
      </g>
     </g>
     <g id="text_16">
      <!-- 1.0 -->
      <g transform="translate(591.227548 268.20928) scale(0.1 -0.1)">
       <use xlink:href="#DejaVuSans-31"/>
       <use xlink:href="#DejaVuSans-2e" x="63.623047"/>
       <use xlink:href="#DejaVuSans-30" x="95.410156"/>
      </g>
     </g>
    </g>
   </g>
   <g id="matplotlib.axis_4">
    <g id="ytick_3">
     <g id="line2d_36">
      <g>
       <use xlink:href="#m4314cb21dc" x="374.097268" y="45.636152" style="stroke: #000000; stroke-width: 0.8"/>
      </g>
     </g>
     <g id="text_17">
      <!-- extra_t1 -->
      <g transform="translate(325.758205 49.296308) scale(0.1 -0.1)">
       <use xlink:href="#DejaVuSans-65"/>
       <use xlink:href="#DejaVuSans-78" x="59.773438"/>
       <use xlink:href="#DejaVuSans-74" x="118.953125"/>
       <use xlink:href="#DejaVuSans-72" x="158.162109"/>
       <use xlink:href="#DejaVuSans-61" x="199.275391"/>
       <use xlink:href="#DejaVuSans-5f" x="260.554688"/>
       <use xlink:href="#DejaVuSans-74" x="310.554688"/>
       <use xlink:href="#DejaVuSans-31" x="349.763672"/>
      </g>
     </g>
    </g>
    <g id="ytick_4">
     <g id="line2d_37">
      <g>
       <use xlink:href="#m4314cb21dc" x="374.097268" y="243.707286" style="stroke: #000000; stroke-width: 0.8"/>
      </g>
     </g>
     <g id="text_18">
      <!-- latency_t1 -->
      <g transform="translate(315.08008 247.506505) scale(0.1 -0.1)">
       <use xlink:href="#DejaVuSans-6c"/>
       <use xlink:href="#DejaVuSans-61" x="27.783203"/>
       <use xlink:href="#DejaVuSans-74" x="89.0625"/>
       <use xlink:href="#DejaVuSans-65" x="128.271484"/>
       <use xlink:href="#DejaVuSans-6e" x="189.794922"/>
       <use xlink:href="#DejaVuSans-63" x="253.173828"/>
       <use xlink:href="#DejaVuSans-79" x="308.154297"/>
       <use xlink:href="#DejaVuSans-5f" x="367.333984"/>
       <use xlink:href="#DejaVuSans-74" x="417.333984"/>
       <use xlink:href="#DejaVuSans-31" x="456.542969"/>
      </g>
     </g>
    </g>
   </g>
   <g id="LineCollection_3">
    <path d="M 385.316479 45.636152 
L 609.700709 45.636152 
" clip-path="url(#p349a56cc56)" style="fill: none; stroke: #1f77b4; stroke-width: 1.5"/>
   </g>
   <g id="line2d_38">
    <g clip-path="url(#p349a56cc56)">
     <use xlink:href="#mae9053bc54" x="385.316479" y="45.636152" style="fill: #1f77b4; stroke: #1f77b4"/>
    </g>
   </g>
   <g id="line2d_39">
    <g clip-path="url(#p349a56cc56)">
     <use xlink:href="#mae9053bc54" x="609.700709" y="45.636152" style="fill: #1f77b4; stroke: #1f77b4"/>
    </g>
   </g>
   <g id="LineCollection_4">
    <path d="M 422.105941 243.707286 
L 488.708728 243.707286 
" clip-path="url(#p349a56cc56)" style="fill: none; stroke: #ff7f0e; stroke-width: 1.5"/>
   </g>
   <g id="line2d_40">
    <g clip-path="url(#p349a56cc56)">
     <use xlink:href="#m1c3b50a7c8" x="422.105941" y="243.707286" style="fill: #ff7f0e; stroke: #ff7f0e"/>
    </g>
   </g>
   <g id="line2d_41">
    <g clip-path="url(#p349a56cc56)">
     <use xlink:href="#m1c3b50a7c8" x="488.708728" y="243.707286" style="fill: #ff7f0e; stroke: #ff7f0e"/>
    </g>
   </g>
   <g id="line2d_42">
    <path d="M 523.795609 253.610842 
L 523.795609 35.732595 
" clip-path="url(#p349a56cc56)" style="fill: none; stroke: #888888; stroke-width: 0.8; stroke-linecap: square"/>
   </g>
   <g id="line2d_43">
    <g clip-path="url(#p349a56cc56)">
     <use xlink:href="#m3f2d581cd9" x="498.340607" y="45.636152" style="fill: #1f77b4; stroke: #1f77b4"/>
    </g>
   </g>
   <g id="line2d_44">
    <g clip-path="url(#p349a56cc56)">
     <use xlink:href="#m08a91cac7a" x="455.48023" y="243.707286" style="fill: #ff7f0e; stroke: #ff7f0e"/>
    </g>
   </g>
   <g id="patch_6">
    <path d="M 374.097268 253.610842 
L 374.097268 35.732595 
" style="fill: none; stroke: #000000; stroke-width: 0.8; stroke-linejoin: miter; stroke-linecap: square"/>
   </g>
   <g id="patch_7">
    <path d="M 374.097268 253.610842 
L 620.91992 253.610842 
" style="fill: none; stroke: #000000; stroke-width: 0.8; stroke-linejoin: miter; stroke-linecap: square"/>
   </g>
   <g id="text_19">
    <!-- p99 latency reduction (%) -->
    <g transform="translate(419.493594 29.732595) scale(0.12 -0.12)">
     <defs>
      <path id="DejaVuSans-69" d="M 603 3500 
L 1178 3500 
L 1178 0 
L 603 0 
L 603 3500 
z
M 603 4863 
L 1178 4863 
L 1178 4134 
L 603 4134 
L 603 4863 
z
" transform="scale(0.015625)"/>
      <path id="DejaVuSans-28" d="M 1984 4856 
Q 1566 4138 1362 3434 
Q 1159 2731 1159 2009 
Q 1159 1288 1364 580 
Q 1569 -128 1984 -844 
L 1484 -844 
Q 1016 -109 783 600 
Q 550 1309 550 2009 
Q 550 2706 781 3412 
Q 1013 4119 1484 4856 
L 1984 4856 
z
" transform="scale(0.015625)"/>
      <path id="DejaVuSans-25" d="M 4653 2053 
Q 4381 2053 4226 1822 
Q 4072 1591 4072 1178 
Q 4072 772 4226 539 
Q 4381 306 4653 306 
Q 4919 306 5073 539 
Q 5228 772 5228 1178 
Q 5228 1588 5073 1820 
Q 4919 2053 4653 2053 
z
M 4653 2450 
Q 5147 2450 5437 2106 
Q 5728 1763 5728 1178 
Q 5728 594 5436 251 
Q 5144 -91 4653 -91 
Q 4153 -91 3862 251 
Q 3572 594 3572 1178 
Q 3572 1766 3864 2108 
Q 4156 2450 4653 2450 
z
M 1428 4353 
Q 1159 4353 1004 4120 
Q 850 3888 850 3481 
Q 850 3069 1003 2837 
Q 1156 2606 1428 2606 
Q 1700 2606 1854 2837 
Q 2009 3069 2009 3481 
Q 2009 3884 1853 4118 
Q 1697 4353 1428 4353 
z
M 4250 4750 
L 4750 4750 
L 1831 -91 
L 1331 -91 
L 4250 4750 
z
M 1428 4750 
Q 1922 4750 2215 4408 
Q 2509 4066 2509 3481 
Q 2509 2891 2217 2550 
Q 1925 2209 1428 2209 
Q 931 2209 642 2551 
Q 353 2894 353 3481 
Q 353 4063 643 4406 
Q 934 4750 1428 4750 
z
" transform="scale(0.015625)"/>
      <path id="DejaVuSans-29" d="M 513 4856 
L 1013 4856 
Q 1481 4119 1714 3412 
Q 1947 2706 1947 2009 
Q 1947 1309 1714 600 
Q 1481 -109 1013 -844 
L 513 -844 
Q 928 -128 1133 580 
Q 1338 1288 1338 2009 
Q 1338 2731 1133 3434 
Q 928 4138 513 4856 
z
" transform="scale(0.015625)"/>
     </defs>
     <use xlink:href="#DejaVuSans-70"/>
     <use xlink:href="#DejaVuSans-39" x="63.476562"/>
     <use xlink:href="#DejaVuSans-39" x="127.099609"/>
     <use xlink:href="#DejaVuSans-20" x="190.722656"/>
     <use xlink:href="#DejaVuSans-6c" x="222.509766"/>
     <use xlink:href="#DejaVuSans-61" x="250.292969"/>
     <use xlink:href="#DejaVuSans-74" x="311.572266"/>
     <use xlink:href="#DejaVuSans-65" x="350.78125"/>
     <use xlink:href="#DejaVuSans-6e" x="412.304688"/>
     <use xlink:href="#DejaVuSans-63" x="475.683594"/>
     <use xlink:href="#DejaVuSans-79" x="530.664062"/>
     <use xlink:href="#DejaVuSans-20" x="589.84375"/>
     <use xlink:href="#DejaVuSans-72" x="621.630859"/>
     <use xlink:href="#DejaVuSans-65" x="660.494141"/>
     <use xlink:href="#DejaVuSans-64" x="722.017578"/>
     <use xlink:href="#DejaVuSans-75" x="785.494141"/>
     <use xlink:href="#DejaVuSans-63" x="848.873047"/>
     <use xlink:href="#DejaVuSans-74" x="903.853516"/>
     <use xlink:href="#DejaVuSans-69" x="943.0625"/>
     <use xlink:href="#DejaVuSans-6f" x="970.845703"/>
     <use xlink:href="#DejaVuSans-6e" x="1032.027344"/>
     <use xlink:href="#DejaVuSans-20" x="1095.40625"/>
     <use xlink:href="#DejaVuSans-28" x="1127.193359"/>
     <use xlink:href="#DejaVuSans-25" x="1166.207031"/>
     <use xlink:href="#DejaVuSans-29" x="1261.226562"/>
    </g>
   </g>
  </g>
  <g id="axes_3">
   <g id="patch_8">
    <path d="M 686.177107 253.610842 
L 932.99976 253.610842 
L 932.99976 35.732595 
L 686.177107 35.732595 
z
" style="fill: #ffffff"/>
   </g>
   <g id="matplotlib.axis_5">
    <g id="xtick_14">
     <g id="line2d_45">
      <path d="M 700.754325 253.610842 
L 700.754325 35.732595 
" clip-path="url(#p663c4d5d11)" style="fill: none; stroke: #b0b0b0; stroke-opacity: 0.2; stroke-width: 0.8; stroke-linecap: square"/>
     </g>
     <g id="line2d_46">
      <g>
       <use xlink:href="#m51d49e433a" x="700.754325" y="253.610842" style="stroke: #000000; stroke-width: 0.8"/>
      </g>
     </g>
     <g id="text_20">
      <!-- −0.6 -->
      <g transform="translate(688.612918 268.20928) scale(0.1 -0.1)">
       <defs>
        <path id="DejaVuSans-36" d="M 2113 2584 
Q 1688 2584 1439 2293 
Q 1191 2003 1191 1497 
Q 1191 994 1439 701 
Q 1688 409 2113 409 
Q 2538 409 2786 701 
Q 3034 994 3034 1497 
Q 3034 2003 2786 2293 
Q 2538 2584 2113 2584 
z
M 3366 4563 
L 3366 3988 
Q 3128 4100 2886 4159 
Q 2644 4219 2406 4219 
Q 1781 4219 1451 3797 
Q 1122 3375 1075 2522 
Q 1259 2794 1537 2939 
Q 1816 3084 2150 3084 
Q 2853 3084 3261 2657 
Q 3669 2231 3669 1497 
Q 3669 778 3244 343 
Q 2819 -91 2113 -91 
Q 1303 -91 875 529 
Q 447 1150 447 2328 
Q 447 3434 972 4092 
Q 1497 4750 2381 4750 
Q 2619 4750 2861 4703 
Q 3103 4656 3366 4563 
z
" transform="scale(0.015625)"/>
       </defs>
       <use xlink:href="#DejaVuSans-2212"/>
       <use xlink:href="#DejaVuSans-30" x="83.789062"/>
       <use xlink:href="#DejaVuSans-2e" x="147.412109"/>
       <use xlink:href="#DejaVuSans-36" x="179.199219"/>
      </g>
     </g>
    </g>
    <g id="xtick_15">
     <g id="line2d_47">
      <path d="M 737.444563 253.610842 
L 737.444563 35.732595 
" clip-path="url(#p663c4d5d11)" style="fill: none; stroke: #b0b0b0; stroke-opacity: 0.2; stroke-width: 0.8; stroke-linecap: square"/>
     </g>
     <g id="line2d_48">
      <g>
       <use xlink:href="#m51d49e433a" x="737.444563" y="253.610842" style="stroke: #000000; stroke-width: 0.8"/>
      </g>
     </g>
     <g id="text_21">
      <!-- −0.4 -->
      <g transform="translate(725.303157 268.20928) scale(0.1 -0.1)">
       <defs>
        <path id="DejaVuSans-34" d="M 2419 4116 
L 825 1625 
L 2419 1625 
L 2419 4116 
z
M 2253 4666 
L 3047 4666 
L 3047 1625 
L 3713 1625 
L 3713 1100 
L 3047 1100 
L 3047 0 
L 2419 0 
L 2419 1100 
L 313 1100 
L 313 1709 
L 2253 4666 
z
" transform="scale(0.015625)"/>
       </defs>
       <use xlink:href="#DejaVuSans-2212"/>
       <use xlink:href="#DejaVuSans-30" x="83.789062"/>
       <use xlink:href="#DejaVuSans-2e" x="147.412109"/>
       <use xlink:href="#DejaVuSans-34" x="179.199219"/>
      </g>
     </g>
    </g>
    <g id="xtick_16">
     <g id="line2d_49">
      <path d="M 774.134802 253.610842 
L 774.134802 35.732595 
" clip-path="url(#p663c4d5d11)" style="fill: none; stroke: #b0b0b0; stroke-opacity: 0.2; stroke-width: 0.8; stroke-linecap: square"/>
     </g>
     <g id="line2d_50">
      <g>
       <use xlink:href="#m51d49e433a" x="774.134802" y="253.610842" style="stroke: #000000; stroke-width: 0.8"/>
      </g>
     </g>
     <g id="text_22">
      <!-- −0.2 -->
      <g transform="translate(761.993396 268.20928) scale(0.1 -0.1)">
       <use xlink:href="#DejaVuSans-2212"/>
       <use xlink:href="#DejaVuSans-30" x="83.789062"/>
       <use xlink:href="#DejaVuSans-2e" x="147.412109"/>
       <use xlink:href="#DejaVuSans-32" x="179.199219"/>
      </g>
     </g>
    </g>
    <g id="xtick_17">
     <g id="line2d_51">
      <path d="M 810.825041 253.610842 
L 810.825041 35.732595 
" clip-path="url(#p663c4d5d11)" style="fill: none; stroke: #b0b0b0; stroke-opacity: 0.2; stroke-width: 0.8; stroke-linecap: square"/>
     </g>
     <g id="line2d_52">
      <g>
       <use xlink:href="#m51d49e433a" x="810.825041" y="253.610842" style="stroke: #000000; stroke-width: 0.8"/>
      </g>
     </g>
     <g id="text_23">
      <!-- 0.0 -->
      <g transform="translate(802.873478 268.20928) scale(0.1 -0.1)">
       <use xlink:href="#DejaVuSans-30"/>
       <use xlink:href="#DejaVuSans-2e" x="63.623047"/>
       <use xlink:href="#DejaVuSans-30" x="95.410156"/>
      </g>
     </g>
    </g>
    <g id="xtick_18">
     <g id="line2d_53">
      <path d="M 847.51528 253.610842 
L 847.51528 35.732595 
" clip-path="url(#p663c4d5d11)" style="fill: none; stroke: #b0b0b0; stroke-opacity: 0.2; stroke-width: 0.8; stroke-linecap: square"/>
     </g>
     <g id="line2d_54">
      <g>
       <use xlink:href="#m51d49e433a" x="847.51528" y="253.610842" style="stroke: #000000; stroke-width: 0.8"/>
      </g>
     </g>
     <g id="text_24">
      <!-- 0.2 -->
      <g transform="translate(839.563717 268.20928) scale(0.1 -0.1)">
       <use xlink:href="#DejaVuSans-30"/>
       <use xlink:href="#DejaVuSans-2e" x="63.623047"/>
       <use xlink:href="#DejaVuSans-32" x="95.410156"/>
      </g>
     </g>
    </g>
    <g id="xtick_19">
     <g id="line2d_55">
      <path d="M 884.205518 253.610842 
L 884.205518 35.732595 
" clip-path="url(#p663c4d5d11)" style="fill: none; stroke: #b0b0b0; stroke-opacity: 0.2; stroke-width: 0.8; stroke-linecap: square"/>
     </g>
     <g id="line2d_56">
      <g>
       <use xlink:href="#m51d49e433a" x="884.205518" y="253.610842" style="stroke: #000000; stroke-width: 0.8"/>
      </g>
     </g>
     <g id="text_25">
      <!-- 0.4 -->
      <g transform="translate(876.253956 268.20928) scale(0.1 -0.1)">
       <use xlink:href="#DejaVuSans-30"/>
       <use xlink:href="#DejaVuSans-2e" x="63.623047"/>
       <use xlink:href="#DejaVuSans-34" x="95.410156"/>
      </g>
     </g>
    </g>
    <g id="xtick_20">
     <g id="line2d_57">
      <path d="M 920.895757 253.610842 
L 920.895757 35.732595 
" clip-path="url(#p663c4d5d11)" style="fill: none; stroke: #b0b0b0; stroke-opacity: 0.2; stroke-width: 0.8; stroke-linecap: square"/>
     </g>
     <g id="line2d_58">
      <g>
       <use xlink:href="#m51d49e433a" x="920.895757" y="253.610842" style="stroke: #000000; stroke-width: 0.8"/>
      </g>
     </g>
     <g id="text_26">
      <!-- 0.6 -->
      <g transform="translate(912.944195 268.20928) scale(0.1 -0.1)">
       <use xlink:href="#DejaVuSans-30"/>
       <use xlink:href="#DejaVuSans-2e" x="63.623047"/>
       <use xlink:href="#DejaVuSans-36" x="95.410156"/>
      </g>
     </g>
    </g>
   </g>
   <g id="matplotlib.axis_6">
    <g id="ytick_5">
     <g id="line2d_59">
      <g>
       <use xlink:href="#m4314cb21dc" x="686.177107" y="45.636152" style="stroke: #000000; stroke-width: 0.8"/>
      </g>
     </g>
     <g id="text_27">
      <!-- extra_t1 -->
      <g transform="translate(637.838045 49.296308) scale(0.1 -0.1)">
       <use xlink:href="#DejaVuSans-65"/>
       <use xlink:href="#DejaVuSans-78" x="59.773438"/>
       <use xlink:href="#DejaVuSans-74" x="118.953125"/>
       <use xlink:href="#DejaVuSans-72" x="158.162109"/>
       <use xlink:href="#DejaVuSans-61" x="199.275391"/>
       <use xlink:href="#DejaVuSans-5f" x="260.554688"/>
       <use xlink:href="#DejaVuSans-74" x="310.554688"/>
       <use xlink:href="#DejaVuSans-31" x="349.763672"/>
      </g>
     </g>
    </g>
    <g id="ytick_6">
     <g id="line2d_60">
      <g>
       <use xlink:href="#m4314cb21dc" x="686.177107" y="243.707286" style="stroke: #000000; stroke-width: 0.8"/>
      </g>
     </g>
     <g id="text_28">
      <!-- latency_t1 -->
      <g transform="translate(627.15992 247.506505) scale(0.1 -0.1)">
       <use xlink:href="#DejaVuSans-6c"/>
       <use xlink:href="#DejaVuSans-61" x="27.783203"/>
       <use xlink:href="#DejaVuSans-74" x="89.0625"/>
       <use xlink:href="#DejaVuSans-65" x="128.271484"/>
       <use xlink:href="#DejaVuSans-6e" x="189.794922"/>
       <use xlink:href="#DejaVuSans-63" x="253.173828"/>
       <use xlink:href="#DejaVuSans-79" x="308.154297"/>
       <use xlink:href="#DejaVuSans-5f" x="367.333984"/>
       <use xlink:href="#DejaVuSans-74" x="417.333984"/>
       <use xlink:href="#DejaVuSans-31" x="456.542969"/>
      </g>
     </g>
    </g>
   </g>
   <g id="LineCollection_5">
    <path d="M 697.396319 45.636152 
L 921.780549 45.636152 
" clip-path="url(#p663c4d5d11)" style="fill: none; stroke: #1f77b4; stroke-width: 1.5"/>
   </g>
   <g id="line2d_61">
    <g clip-path="url(#p663c4d5d11)">
     <use xlink:href="#mae9053bc54" x="697.396319" y="45.636152" style="fill: #1f77b4; stroke: #1f77b4"/>
    </g>
   </g>
   <g id="line2d_62">
    <g clip-path="url(#p663c4d5d11)">
     <use xlink:href="#mae9053bc54" x="921.780549" y="45.636152" style="fill: #1f77b4; stroke: #1f77b4"/>
    </g>
   </g>
   <g id="LineCollection_6">
    <path d="M 703.734017 243.707286 
L 914.82807 243.707286 
" clip-path="url(#p663c4d5d11)" style="fill: none; stroke: #ff7f0e; stroke-width: 1.5"/>
   </g>
   <g id="line2d_63">
    <g clip-path="url(#p663c4d5d11)">
     <use xlink:href="#m1c3b50a7c8" x="703.734017" y="243.707286" style="fill: #ff7f0e; stroke: #ff7f0e"/>
    </g>
   </g>
   <g id="line2d_64">
    <g clip-path="url(#p663c4d5d11)">
     <use xlink:href="#m1c3b50a7c8" x="914.82807" y="243.707286" style="fill: #ff7f0e; stroke: #ff7f0e"/>
    </g>
   </g>
   <g id="line2d_65">
    <path d="M 810.825041 253.610842 
L 810.825041 35.732595 
" clip-path="url(#p663c4d5d11)" style="fill: none; stroke: #888888; stroke-width: 0.8; stroke-linecap: square"/>
   </g>
   <g id="line2d_66">
    <g clip-path="url(#p663c4d5d11)">
     <use xlink:href="#m3f2d581cd9" x="809.931477" y="45.636152" style="fill: #1f77b4; stroke: #1f77b4"/>
    </g>
   </g>
   <g id="line2d_67">
    <g clip-path="url(#p663c4d5d11)">
     <use xlink:href="#m08a91cac7a" x="809.584648" y="243.707286" style="fill: #ff7f0e; stroke: #ff7f0e"/>
    </g>
   </g>
   <g id="patch_9">
    <path d="M 686.177107 253.610842 
L 686.177107 35.732595 
" style="fill: none; stroke: #000000; stroke-width: 0.8; stroke-linejoin: miter; stroke-linecap: square"/>
   </g>
   <g id="patch_10">
    <path d="M 686.177107 253.610842 
L 932.99976 253.610842 
" style="fill: none; stroke: #000000; stroke-width: 0.8; stroke-linejoin: miter; stroke-linecap: square"/>
   </g>
   <g id="text_29">
    <!-- Whole CPU reduction (%) -->
    <g transform="translate(734.094371 29.732595) scale(0.12 -0.12)">
     <defs>
      <path id="DejaVuSans-57" d="M 213 4666 
L 850 4666 
L 1831 722 
L 2809 4666 
L 3519 4666 
L 4500 722 
L 5478 4666 
L 6119 4666 
L 4947 0 
L 4153 0 
L 3169 4050 
L 2175 0 
L 1381 0 
L 213 4666 
z
" transform="scale(0.015625)"/>
      <path id="DejaVuSans-43" d="M 4122 4306 
L 4122 3641 
Q 3803 3938 3442 4084 
Q 3081 4231 2675 4231 
Q 1875 4231 1450 3742 
Q 1025 3253 1025 2328 
Q 1025 1406 1450 917 
Q 1875 428 2675 428 
Q 3081 428 3442 575 
Q 3803 722 4122 1019 
L 4122 359 
Q 3791 134 3420 21 
Q 3050 -91 2638 -91 
Q 1578 -91 968 557 
Q 359 1206 359 2328 
Q 359 3453 968 4101 
Q 1578 4750 2638 4750 
Q 3056 4750 3426 4639 
Q 3797 4528 4122 4306 
z
" transform="scale(0.015625)"/>
      <path id="DejaVuSans-50" d="M 1259 4147 
L 1259 2394 
L 2053 2394 
Q 2494 2394 2734 2622 
Q 2975 2850 2975 3272 
Q 2975 3691 2734 3919 
Q 2494 4147 2053 4147 
L 1259 4147 
z
M 628 4666 
L 2053 4666 
Q 2838 4666 3239 4311 
Q 3641 3956 3641 3272 
Q 3641 2581 3239 2228 
Q 2838 1875 2053 1875 
L 1259 1875 
L 1259 0 
L 628 0 
L 628 4666 
z
" transform="scale(0.015625)"/>
      <path id="DejaVuSans-55" d="M 556 4666 
L 1191 4666 
L 1191 1831 
Q 1191 1081 1462 751 
Q 1734 422 2344 422 
Q 2950 422 3222 751 
Q 3494 1081 3494 1831 
L 3494 4666 
L 4128 4666 
L 4128 1753 
Q 4128 841 3676 375 
Q 3225 -91 2344 -91 
Q 1459 -91 1007 375 
Q 556 841 556 1753 
L 556 4666 
z
" transform="scale(0.015625)"/>
     </defs>
     <use xlink:href="#DejaVuSans-57"/>
     <use xlink:href="#DejaVuSans-68" x="98.876953"/>
     <use xlink:href="#DejaVuSans-6f" x="162.255859"/>
     <use xlink:href="#DejaVuSans-6c" x="223.4375"/>
     <use xlink:href="#DejaVuSans-65" x="251.220703"/>
     <use xlink:href="#DejaVuSans-20" x="312.744141"/>
     <use xlink:href="#DejaVuSans-43" x="344.53125"/>
     <use xlink:href="#DejaVuSans-50" x="414.355469"/>
     <use xlink:href="#DejaVuSans-55" x="474.658203"/>
     <use xlink:href="#DejaVuSans-20" x="547.851562"/>
     <use xlink:href="#DejaVuSans-72" x="579.638672"/>
     <use xlink:href="#DejaVuSans-65" x="618.501953"/>
     <use xlink:href="#DejaVuSans-64" x="680.025391"/>
     <use xlink:href="#DejaVuSans-75" x="743.501953"/>
     <use xlink:href="#DejaVuSans-63" x="806.880859"/>
     <use xlink:href="#DejaVuSans-74" x="861.861328"/>
     <use xlink:href="#DejaVuSans-69" x="901.070312"/>
     <use xlink:href="#DejaVuSans-6f" x="928.853516"/>
     <use xlink:href="#DejaVuSans-6e" x="990.035156"/>
     <use xlink:href="#DejaVuSans-20" x="1053.414062"/>
     <use xlink:href="#DejaVuSans-28" x="1085.201172"/>
     <use xlink:href="#DejaVuSans-25" x="1124.214844"/>
     <use xlink:href="#DejaVuSans-29" x="1219.234375"/>
    </g>
   </g>
  </g>
  <g id="text_30">
   <!-- Long frontend-stall targets versus split75: full Media C4 -->
   <g transform="translate(301.217813 12.118365) scale(0.12 -0.12)">
    <defs>
     <path id="DejaVuSans-4c" d="M 628 4666 
L 1259 4666 
L 1259 531 
L 3531 531 
L 3531 0 
L 628 0 
L 628 4666 
z
" transform="scale(0.015625)"/>
     <path id="DejaVuSans-66" d="M 2375 4863 
L 2375 4384 
L 1825 4384 
Q 1516 4384 1395 4259 
Q 1275 4134 1275 3809 
L 1275 3500 
L 2222 3500 
L 2222 3053 
L 1275 3053 
L 1275 0 
L 697 0 
L 697 3053 
L 147 3053 
L 147 3500 
L 697 3500 
L 697 3744 
Q 697 4328 969 4595 
Q 1241 4863 1831 4863 
L 2375 4863 
z
" transform="scale(0.015625)"/>
     <path id="DejaVuSans-2d" d="M 313 2009 
L 1997 2009 
L 1997 1497 
L 313 1497 
L 313 2009 
z
" transform="scale(0.015625)"/>
     <path id="DejaVuSans-76" d="M 191 3500 
L 800 3500 
L 1894 563 
L 2988 3500 
L 3597 3500 
L 2284 0 
L 1503 0 
L 191 3500 
z
" transform="scale(0.015625)"/>
     <path id="DejaVuSans-3a" d="M 750 794 
L 1409 794 
L 1409 0 
L 750 0 
L 750 794 
z
M 750 3309 
L 1409 3309 
L 1409 2516 
L 750 2516 
L 750 3309 
z
" transform="scale(0.015625)"/>
     <path id="DejaVuSans-4d" d="M 628 4666 
L 1569 4666 
L 2759 1491 
L 3956 4666 
L 4897 4666 
L 4897 0 
L 4281 0 
L 4281 4097 
L 3078 897 
L 2444 897 
L 1241 4097 
L 1241 0 
L 628 0 
L 628 4666 
z
" transform="scale(0.015625)"/>
    </defs>
    <use xlink:href="#DejaVuSans-4c"/>
    <use xlink:href="#DejaVuSans-6f" x="53.962891"/>
    <use xlink:href="#DejaVuSans-6e" x="115.144531"/>
    <use xlink:href="#DejaVuSans-67" x="178.523438"/>
    <use xlink:href="#DejaVuSans-20" x="242"/>
    <use xlink:href="#DejaVuSans-66" x="273.787109"/>
    <use xlink:href="#DejaVuSans-72" x="308.992188"/>
    <use xlink:href="#DejaVuSans-6f" x="347.855469"/>
    <use xlink:href="#DejaVuSans-6e" x="409.037109"/>
    <use xlink:href="#DejaVuSans-74" x="472.416016"/>
    <use xlink:href="#DejaVuSans-65" x="511.625"/>
    <use xlink:href="#DejaVuSans-6e" x="573.148438"/>
    <use xlink:href="#DejaVuSans-64" x="636.527344"/>
    <use xlink:href="#DejaVuSans-2d" x="700.003906"/>
    <use xlink:href="#DejaVuSans-73" x="736.087891"/>
    <use xlink:href="#DejaVuSans-74" x="788.1875"/>
    <use xlink:href="#DejaVuSans-61" x="827.396484"/>
    <use xlink:href="#DejaVuSans-6c" x="888.675781"/>
    <use xlink:href="#DejaVuSans-6c" x="916.458984"/>
    <use xlink:href="#DejaVuSans-20" x="944.242188"/>
    <use xlink:href="#DejaVuSans-74" x="976.029297"/>
    <use xlink:href="#DejaVuSans-61" x="1015.238281"/>
    <use xlink:href="#DejaVuSans-72" x="1076.517578"/>
    <use xlink:href="#DejaVuSans-67" x="1115.880859"/>
    <use xlink:href="#DejaVuSans-65" x="1179.357422"/>
    <use xlink:href="#DejaVuSans-74" x="1240.880859"/>
    <use xlink:href="#DejaVuSans-73" x="1280.089844"/>
    <use xlink:href="#DejaVuSans-20" x="1332.189453"/>
    <use xlink:href="#DejaVuSans-76" x="1363.976562"/>
    <use xlink:href="#DejaVuSans-65" x="1423.15625"/>
    <use xlink:href="#DejaVuSans-72" x="1484.679688"/>
    <use xlink:href="#DejaVuSans-73" x="1525.792969"/>
    <use xlink:href="#DejaVuSans-75" x="1577.892578"/>
    <use xlink:href="#DejaVuSans-73" x="1641.271484"/>
    <use xlink:href="#DejaVuSans-20" x="1693.371094"/>
    <use xlink:href="#DejaVuSans-73" x="1725.158203"/>
    <use xlink:href="#DejaVuSans-70" x="1777.257812"/>
    <use xlink:href="#DejaVuSans-6c" x="1840.734375"/>
    <use xlink:href="#DejaVuSans-69" x="1868.517578"/>
    <use xlink:href="#DejaVuSans-74" x="1896.300781"/>
    <use xlink:href="#DejaVuSans-37" x="1935.509766"/>
    <use xlink:href="#DejaVuSans-35" x="1999.132812"/>
    <use xlink:href="#DejaVuSans-3a" x="2062.755859"/>
    <use xlink:href="#DejaVuSans-20" x="2096.447266"/>
    <use xlink:href="#DejaVuSans-66" x="2128.234375"/>
    <use xlink:href="#DejaVuSans-75" x="2163.439453"/>
    <use xlink:href="#DejaVuSans-6c" x="2226.818359"/>
    <use xlink:href="#DejaVuSans-6c" x="2254.601562"/>
    <use xlink:href="#DejaVuSans-20" x="2282.384766"/>
    <use xlink:href="#DejaVuSans-4d" x="2314.171875"/>
    <use xlink:href="#DejaVuSans-65" x="2400.451172"/>
    <use xlink:href="#DejaVuSans-64" x="2461.974609"/>
    <use xlink:href="#DejaVuSans-69" x="2525.451172"/>
    <use xlink:href="#DejaVuSans-61" x="2553.234375"/>
    <use xlink:href="#DejaVuSans-20" x="2614.513672"/>
    <use xlink:href="#DejaVuSans-43" x="2646.300781"/>
    <use xlink:href="#DejaVuSans-34" x="2716.125"/>
   </g>
  </g>
  <g id="text_31">
   <!-- Four fresh-stack paired blocks; individual 95% intervals, no multiplicity correction. Endpoint timing precedes PMU. -->
   <g transform="translate(210.902344 283.128041) scale(0.09 -0.09)">
    <defs>
     <path id="DejaVuSans-46" d="M 628 4666 
L 3309 4666 
L 3309 4134 
L 1259 4134 
L 1259 2759 
L 3109 2759 
L 3109 2228 
L 1259 2228 
L 1259 0 
L 628 0 
L 628 4666 
z
" transform="scale(0.015625)"/>
     <path id="DejaVuSans-6b" d="M 581 4863 
L 1159 4863 
L 1159 1991 
L 2875 3500 
L 3609 3500 
L 1753 1863 
L 3688 0 
L 2938 0 
L 1159 1709 
L 1159 0 
L 581 0 
L 581 4863 
z
" transform="scale(0.015625)"/>
     <path id="DejaVuSans-62" d="M 3116 1747 
Q 3116 2381 2855 2742 
Q 2594 3103 2138 3103 
Q 1681 3103 1420 2742 
Q 1159 2381 1159 1747 
Q 1159 1113 1420 752 
Q 1681 391 2138 391 
Q 2594 391 2855 752 
Q 3116 1113 3116 1747 
z
M 1159 2969 
Q 1341 3281 1617 3432 
Q 1894 3584 2278 3584 
Q 2916 3584 3314 3078 
Q 3713 2572 3713 1747 
Q 3713 922 3314 415 
Q 2916 -91 2278 -91 
Q 1894 -91 1617 61 
Q 1341 213 1159 525 
L 1159 0 
L 581 0 
L 581 4863 
L 1159 4863 
L 1159 2969 
z
" transform="scale(0.015625)"/>
     <path id="DejaVuSans-3b" d="M 750 3309 
L 1409 3309 
L 1409 2516 
L 750 2516 
L 750 3309 
z
M 750 794 
L 1409 794 
L 1409 256 
L 897 -744 
L 494 -744 
L 750 256 
L 750 794 
z
" transform="scale(0.015625)"/>
     <path id="DejaVuSans-2c" d="M 750 794 
L 1409 794 
L 1409 256 
L 897 -744 
L 494 -744 
L 750 256 
L 750 794 
z
" transform="scale(0.015625)"/>
     <path id="DejaVuSans-6d" d="M 3328 2828 
Q 3544 3216 3844 3400 
Q 4144 3584 4550 3584 
Q 5097 3584 5394 3201 
Q 5691 2819 5691 2113 
L 5691 0 
L 5113 0 
L 5113 2094 
Q 5113 2597 4934 2840 
Q 4756 3084 4391 3084 
Q 3944 3084 3684 2787 
Q 3425 2491 3425 1978 
L 3425 0 
L 2847 0 
L 2847 2094 
Q 2847 2600 2669 2842 
Q 2491 3084 2119 3084 
Q 1678 3084 1418 2786 
Q 1159 2488 1159 1978 
L 1159 0 
L 581 0 
L 581 3500 
L 1159 3500 
L 1159 2956 
Q 1356 3278 1631 3431 
Q 1906 3584 2284 3584 
Q 2666 3584 2933 3390 
Q 3200 3197 3328 2828 
z
" transform="scale(0.015625)"/>
     <path id="DejaVuSans-45" d="M 628 4666 
L 3578 4666 
L 3578 4134 
L 1259 4134 
L 1259 2753 
L 3481 2753 
L 3481 2222 
L 1259 2222 
L 1259 531 
L 3634 531 
L 3634 0 
L 628 0 
L 628 4666 
z
" transform="scale(0.015625)"/>
    </defs>
    <use xlink:href="#DejaVuSans-46"/>
    <use xlink:href="#DejaVuSans-6f" x="53.894531"/>
    <use xlink:href="#DejaVuSans-75" x="115.076172"/>
    <use xlink:href="#DejaVuSans-72" x="178.455078"/>
    <use xlink:href="#DejaVuSans-20" x="219.568359"/>
    <use xlink:href="#DejaVuSans-66" x="251.355469"/>
    <use xlink:href="#DejaVuSans-72" x="286.560547"/>
    <use xlink:href="#DejaVuSans-65" x="325.423828"/>
    <use xlink:href="#DejaVuSans-73" x="386.947266"/>
    <use xlink:href="#DejaVuSans-68" x="439.046875"/>
    <use xlink:href="#DejaVuSans-2d" x="502.425781"/>
    <use xlink:href="#DejaVuSans-73" x="538.509766"/>
    <use xlink:href="#DejaVuSans-74" x="590.609375"/>
    <use xlink:href="#DejaVuSans-61" x="629.818359"/>
    <use xlink:href="#DejaVuSans-63" x="691.097656"/>
    <use xlink:href="#DejaVuSans-6b" x="746.078125"/>
    <use xlink:href="#DejaVuSans-20" x="803.988281"/>
    <use xlink:href="#DejaVuSans-70" x="835.775391"/>
    <use xlink:href="#DejaVuSans-61" x="899.251953"/>
    <use xlink:href="#DejaVuSans-69" x="960.53125"/>
    <use xlink:href="#DejaVuSans-72" x="988.314453"/>
    <use xlink:href="#DejaVuSans-65" x="1027.177734"/>
    <use xlink:href="#DejaVuSans-64" x="1088.701172"/>
    <use xlink:href="#DejaVuSans-20" x="1152.177734"/>
    <use xlink:href="#DejaVuSans-62" x="1183.964844"/>
    <use xlink:href="#DejaVuSans-6c" x="1247.441406"/>
    <use xlink:href="#DejaVuSans-6f" x="1275.224609"/>
    <use xlink:href="#DejaVuSans-63" x="1336.40625"/>
    <use xlink:href="#DejaVuSans-6b" x="1391.386719"/>
    <use xlink:href="#DejaVuSans-73" x="1449.296875"/>
    <use xlink:href="#DejaVuSans-3b" x="1501.396484"/>
    <use xlink:href="#DejaVuSans-20" x="1535.087891"/>
    <use xlink:href="#DejaVuSans-69" x="1566.875"/>
    <use xlink:href="#DejaVuSans-6e" x="1594.658203"/>
    <use xlink:href="#DejaVuSans-64" x="1658.037109"/>
    <use xlink:href="#DejaVuSans-69" x="1721.513672"/>
    <use xlink:href="#DejaVuSans-76" x="1749.296875"/>
    <use xlink:href="#DejaVuSans-69" x="1808.476562"/>
    <use xlink:href="#DejaVuSans-64" x="1836.259766"/>
    <use xlink:href="#DejaVuSans-75" x="1899.736328"/>
    <use xlink:href="#DejaVuSans-61" x="1963.115234"/>
    <use xlink:href="#DejaVuSans-6c" x="2024.394531"/>
    <use xlink:href="#DejaVuSans-20" x="2052.177734"/>
    <use xlink:href="#DejaVuSans-39" x="2083.964844"/>
    <use xlink:href="#DejaVuSans-35" x="2147.587891"/>
    <use xlink:href="#DejaVuSans-25" x="2211.210938"/>
    <use xlink:href="#DejaVuSans-20" x="2306.230469"/>
    <use xlink:href="#DejaVuSans-69" x="2338.017578"/>
    <use xlink:href="#DejaVuSans-6e" x="2365.800781"/>
    <use xlink:href="#DejaVuSans-74" x="2429.179688"/>
    <use xlink:href="#DejaVuSans-65" x="2468.388672"/>
    <use xlink:href="#DejaVuSans-72" x="2529.912109"/>
    <use xlink:href="#DejaVuSans-76" x="2571.025391"/>
    <use xlink:href="#DejaVuSans-61" x="2630.205078"/>
    <use xlink:href="#DejaVuSans-6c" x="2691.484375"/>
    <use xlink:href="#DejaVuSans-73" x="2719.267578"/>
    <use xlink:href="#DejaVuSans-2c" x="2771.367188"/>
    <use xlink:href="#DejaVuSans-20" x="2803.154297"/>
    <use xlink:href="#DejaVuSans-6e" x="2834.941406"/>
    <use xlink:href="#DejaVuSans-6f" x="2898.320312"/>
    <use xlink:href="#DejaVuSans-20" x="2959.501953"/>
    <use xlink:href="#DejaVuSans-6d" x="2991.289062"/>
    <use xlink:href="#DejaVuSans-75" x="3088.701172"/>
    <use xlink:href="#DejaVuSans-6c" x="3152.080078"/>
    <use xlink:href="#DejaVuSans-74" x="3179.863281"/>
    <use xlink:href="#DejaVuSans-69" x="3219.072266"/>
    <use xlink:href="#DejaVuSans-70" x="3246.855469"/>
    <use xlink:href="#DejaVuSans-6c" x="3310.332031"/>
    <use xlink:href="#DejaVuSans-69" x="3338.115234"/>
    <use xlink:href="#DejaVuSans-63" x="3365.898438"/>
    <use xlink:href="#DejaVuSans-69" x="3420.878906"/>
    <use xlink:href="#DejaVuSans-74" x="3448.662109"/>
    <use xlink:href="#DejaVuSans-79" x="3487.871094"/>
    <use xlink:href="#DejaVuSans-20" x="3547.050781"/>
    <use xlink:href="#DejaVuSans-63" x="3578.837891"/>
    <use xlink:href="#DejaVuSans-6f" x="3633.818359"/>
    <use xlink:href="#DejaVuSans-72" x="3695"/>
    <use xlink:href="#DejaVuSans-72" x="3734.363281"/>
    <use xlink:href="#DejaVuSans-65" x="3773.226562"/>
    <use xlink:href="#DejaVuSans-63" x="3834.75"/>
    <use xlink:href="#DejaVuSans-74" x="3889.730469"/>
    <use xlink:href="#DejaVuSans-69" x="3928.939453"/>
    <use xlink:href="#DejaVuSans-6f" x="3956.722656"/>
    <use xlink:href="#DejaVuSans-6e" x="4017.904297"/>
    <use xlink:href="#DejaVuSans-2e" x="4081.283203"/>
    <use xlink:href="#DejaVuSans-20" x="4113.070312"/>
    <use xlink:href="#DejaVuSans-45" x="4144.857422"/>
    <use xlink:href="#DejaVuSans-6e" x="4208.041016"/>
    <use xlink:href="#DejaVuSans-64" x="4271.419922"/>
    <use xlink:href="#DejaVuSans-70" x="4334.896484"/>
    <use xlink:href="#DejaVuSans-6f" x="4398.373047"/>
    <use xlink:href="#DejaVuSans-69" x="4459.554688"/>
    <use xlink:href="#DejaVuSans-6e" x="4487.337891"/>
    <use xlink:href="#DejaVuSans-74" x="4550.716797"/>
    <use xlink:href="#DejaVuSans-20" x="4589.925781"/>
    <use xlink:href="#DejaVuSans-74" x="4621.712891"/>
    <use xlink:href="#DejaVuSans-69" x="4660.921875"/>
    <use xlink:href="#DejaVuSans-6d" x="4688.705078"/>
    <use xlink:href="#DejaVuSans-69" x="4786.117188"/>
    <use xlink:href="#DejaVuSans-6e" x="4813.900391"/>
    <use xlink:href="#DejaVuSans-67" x="4877.279297"/>
    <use xlink:href="#DejaVuSans-20" x="4940.755859"/>
    <use xlink:href="#DejaVuSans-70" x="4972.542969"/>
    <use xlink:href="#DejaVuSans-72" x="5036.019531"/>
    <use xlink:href="#DejaVuSans-65" x="5074.882812"/>
    <use xlink:href="#DejaVuSans-63" x="5136.40625"/>
    <use xlink:href="#DejaVuSans-65" x="5191.386719"/>
    <use xlink:href="#DejaVuSans-64" x="5252.910156"/>
    <use xlink:href="#DejaVuSans-65" x="5316.386719"/>
    <use xlink:href="#DejaVuSans-73" x="5377.910156"/>
    <use xlink:href="#DejaVuSans-20" x="5430.009766"/>
    <use xlink:href="#DejaVuSans-50" x="5461.796875"/>
    <use xlink:href="#DejaVuSans-4d" x="5522.099609"/>
    <use xlink:href="#DejaVuSans-55" x="5608.378906"/>
    <use xlink:href="#DejaVuSans-2e" x="5681.572266"/>
   </g>
  </g>
 </g>
 <defs>
  <clipPath id="p55488a8833">
   <rect x="62.017428" y="35.732595" width="246.822652" height="217.878248"/>
  </clipPath>
  <clipPath id="p349a56cc56">
   <rect x="374.097268" y="35.732595" width="246.822652" height="217.878248"/>
  </clipPath>
  <clipPath id="p663c4d5d11">
   <rect x="686.177107" y="35.732595" width="246.822653" height="217.878248"/>
  </clipPath>
 </defs>
</svg>
