<?xml version="1.0" encoding="utf-8" standalone="no"?>
<!DOCTYPE svg PUBLIC "-//W3C//DTD SVG 1.1//EN"
  "http://www.w3.org/Graphics/SVG/1.1/DTD/svg11.dtd">
<svg xmlns:xlink="http://www.w3.org/1999/xlink" width="712.304062pt" height="281.33125pt" viewBox="0 0 712.304062 281.33125" xmlns="http://www.w3.org/2000/svg" version="1.1">
 <metadata>
  <rdf:RDF xmlns:dc="http://purl.org/dc/elements/1.1/" xmlns:cc="http://creativecommons.org/ns#" xmlns:rdf="http://www.w3.org/1999/02/22-rdf-syntax-ns#">
   <cc:Work>
    <dc:type rdf:resource="http://purl.org/dc/dcmitype/StillImage"/>
    <dc:date>2026-10-02T03:44:13.243490</dc:date>
    <dc:format>image/svg+xml</dc:format>
    <dc:creator>
     <cc:Agent>
      <dc:title>Matplotlib v3.6.3, https://matplotlib.org/</dc:title>
     </cc:Agent>
    </dc:creator>
   </cc:Work>
  </rdf:RDF>
 </metadata>
 <defs>
  <style type="text/css">*{stroke-linejoin: round; stroke-linecap: butt}</style>
 </defs>
 <g id="figure_1">
  <g id="patch_1">
   <path d="M 0 281.33125 
L 712.304062 281.33125 
L 712.304062 0 
L 0 0 
z
" style="fill: #ffffff"/>
  </g>
  <g id="axes_1">
   <g id="patch_2">
    <path d="M 50.65 242.63125 
L 528.39 242.63125 
L 528.39 22.75125 
L 50.65 22.75125 
z
" style="fill: #ffffff"/>
   </g>
   <g id="matplotlib.axis_1">
    <g id="xtick_1">
     <g id="line2d_1">
      <path d="M 72.365455 242.63125 
L 72.365455 22.75125 
" clip-path="url(#p9939335196)" style="fill: none; stroke: #b0b0b0; stroke-opacity: 0.2; stroke-width: 0.8; stroke-linecap: square"/>
     </g>
     <g id="line2d_2">
      <defs>
       <path id="m4e4974a9a3" d="M 0 0 
L 0 3.5 
" style="stroke: #000000; stroke-width: 0.8"/>
      </defs>
      <g>
       <use xlink:href="#m4e4974a9a3" x="72.365455" y="242.63125" style="stroke: #000000; stroke-width: 0.8"/>
      </g>
     </g>
     <g id="text_1">
      <text style="font: 10px 'Noto Sans CJK JP'; text-anchor: middle" x="72.365455" y="257.590625" transform="rotate(-0 72.365455 257.590625)">1</text>
     </g>
    </g>
    <g id="xtick_2">
     <g id="line2d_3">
      <path d="M 159.227273 242.63125 
L 159.227273 22.75125 
" clip-path="url(#p9939335196)" style="fill: none; stroke: #b0b0b0; stroke-opacity: 0.2; stroke-width: 0.8; stroke-linecap: square"/>
     </g>
     <g id="line2d_4">
      <g>
       <use xlink:href="#m4e4974a9a3" x="159.227273" y="242.63125" style="stroke: #000000; stroke-width: 0.8"/>
      </g>
     </g>
     <g id="text_2">
      <text style="font: 10px 'Noto Sans CJK JP'; text-anchor: middle" x="159.227273" y="257.590625" transform="rotate(-0 159.227273 257.590625)">2</text>
     </g>
    </g>
    <g id="xtick_3">
     <g id="line2d_5">
      <path d="M 246.089091 242.63125 
L 246.089091 22.75125 
" clip-path="url(#p9939335196)" style="fill: none; stroke: #b0b0b0; stroke-opacity: 0.2; stroke-width: 0.8; stroke-linecap: square"/>
     </g>
     <g id="line2d_6">
      <g>
       <use xlink:href="#m4e4974a9a3" x="246.089091" y="242.63125" style="stroke: #000000; stroke-width: 0.8"/>
      </g>
     </g>
     <g id="text_3">
      <text style="font: 10px 'Noto Sans CJK JP'; text-anchor: middle" x="246.089091" y="257.590625" transform="rotate(-0 246.089091 257.590625)">3</text>
     </g>
    </g>
    <g id="xtick_4">
     <g id="line2d_7">
      <path d="M 332.950909 242.63125 
L 332.950909 22.75125 
" clip-path="url(#p9939335196)" style="fill: none; stroke: #b0b0b0; stroke-opacity: 0.2; stroke-width: 0.8; stroke-linecap: square"/>
     </g>
     <g id="line2d_8">
      <g>
       <use xlink:href="#m4e4974a9a3" x="332.950909" y="242.63125" style="stroke: #000000; stroke-width: 0.8"/>
      </g>
     </g>
     <g id="text_4">
      <text style="font: 10px 'Noto Sans CJK JP'; text-anchor: middle" x="332.950909" y="257.590625" transform="rotate(-0 332.950909 257.590625)">4</text>
     </g>
    </g>
    <g id="xtick_5">
     <g id="line2d_9">
      <path d="M 419.812727 242.63125 
L 419.812727 22.75125 
" clip-path="url(#p9939335196)" style="fill: none; stroke: #b0b0b0; stroke-opacity: 0.2; stroke-width: 0.8; stroke-linecap: square"/>
     </g>
     <g id="line2d_10">
      <g>
       <use xlink:href="#m4e4974a9a3" x="419.812727" y="242.63125" style="stroke: #000000; stroke-width: 0.8"/>
      </g>
     </g>
     <g id="text_5">
      <text style="font: 10px 'Noto Sans CJK JP'; text-anchor: middle" x="419.812727" y="257.590625" transform="rotate(-0 419.812727 257.590625)">5</text>
     </g>
    </g>
    <g id="xtick_6">
     <g id="line2d_11">
      <path d="M 506.674545 242.63125 
L 506.674545 22.75125 
" clip-path="url(#p9939335196)" style="fill: none; stroke: #b0b0b0; stroke-opacity: 0.2; stroke-width: 0.8; stroke-linecap: square"/>
     </g>
     <g id="line2d_12">
      <g>
       <use xlink:href="#m4e4974a9a3" x="506.674545" y="242.63125" style="stroke: #000000; stroke-width: 0.8"/>
      </g>
     </g>
     <g id="text_6">
      <text style="font: 10px 'Noto Sans CJK JP'; text-anchor: middle" x="506.674545" y="257.590625" transform="rotate(-0 506.674545 257.590625)">6</text>
     </g>
    </g>
    <g id="text_7">
     <text style="font: 10px 'Noto Sans CJK JP'; text-anchor: middle" x="289.52" y="271.840625" transform="rotate(-0 289.52 271.840625)">독립 확인 블록</text>
    </g>
   </g>
   <g id="matplotlib.axis_2">
    <g id="ytick_1">
     <g id="line2d_13">
      <path d="M 50.65 226.414847 
L 528.39 226.414847 
" clip-path="url(#p9939335196)" style="fill: none; stroke: #b0b0b0; stroke-opacity: 0.2; stroke-width: 0.8; stroke-linecap: square"/>
     </g>
     <g id="line2d_14">
      <defs>
       <path id="mc3a6f26afe" d="M 0 0 
L -3.5 0 
" style="stroke: #000000; stroke-width: 0.8"/>
      </defs>
      <g>
       <use xlink:href="#mc3a6f26afe" x="50.65" y="226.414847" style="stroke: #000000; stroke-width: 0.8"/>
      </g>
     </g>
     <g id="text_8">
      <text style="font: 10px 'Noto Sans CJK JP'; text-anchor: end" x="43.65" y="230.394534" transform="rotate(-0 43.65 230.394534)">1180</text>
     </g>
    </g>
    <g id="ytick_2">
     <g id="line2d_15">
      <path d="M 50.65 198.080789 
L 528.39 198.080789 
" clip-path="url(#p9939335196)" style="fill: none; stroke: #b0b0b0; stroke-opacity: 0.2; stroke-width: 0.8; stroke-linecap: square"/>
     </g>
     <g id="line2d_16">
      <g>
       <use xlink:href="#mc3a6f26afe" x="50.65" y="198.080789" style="stroke: #000000; stroke-width: 0.8"/>
      </g>
     </g>
     <g id="text_9">
      <text style="font: 10px 'Noto Sans CJK JP'; text-anchor: end" x="43.65" y="202.060476" transform="rotate(-0 43.65 202.060476)">1190</text>
     </g>
    </g>
    <g id="ytick_3">
     <g id="line2d_17">
      <path d="M 50.65 169.746731 
L 528.39 169.746731 
" clip-path="url(#p9939335196)" style="fill: none; stroke: #b0b0b0; stroke-opacity: 0.2; stroke-width: 0.8; stroke-linecap: square"/>
     </g>
     <g id="line2d_18">
      <g>
       <use xlink:href="#mc3a6f26afe" x="50.65" y="169.746731" style="stroke: #000000; stroke-width: 0.8"/>
      </g>
     </g>
     <g id="text_10">
      <text style="font: 10px 'Noto Sans CJK JP'; text-anchor: end" x="43.65" y="173.726418" transform="rotate(-0 43.65 173.726418)">1200</text>
     </g>
    </g>
    <g id="ytick_4">
     <g id="line2d_19">
      <path d="M 50.65 141.412673 
L 528.39 141.412673 
" clip-path="url(#p9939335196)" style="fill: none; stroke: #b0b0b0; stroke-opacity: 0.2; stroke-width: 0.8; stroke-linecap: square"/>
     </g>
     <g id="line2d_20">
      <g>
       <use xlink:href="#mc3a6f26afe" x="50.65" y="141.412673" style="stroke: #000000; stroke-width: 0.8"/>
      </g>
     </g>
     <g id="text_11">
      <text style="font: 10px 'Noto Sans CJK JP'; text-anchor: end" x="43.65" y="145.39236" transform="rotate(-0 43.65 145.39236)">1210</text>
     </g>
    </g>
    <g id="ytick_5">
     <g id="line2d_21">
      <path d="M 50.65 113.078615 
L 528.39 113.078615 
" clip-path="url(#p9939335196)" style="fill: none; stroke: #b0b0b0; stroke-opacity: 0.2; stroke-width: 0.8; stroke-linecap: square"/>
     </g>
     <g id="line2d_22">
      <g>
       <use xlink:href="#mc3a6f26afe" x="50.65" y="113.078615" style="stroke: #000000; stroke-width: 0.8"/>
      </g>
     </g>
     <g id="text_12">
      <text style="font: 10px 'Noto Sans CJK JP'; text-anchor: end" x="43.65" y="117.058302" transform="rotate(-0 43.65 117.058302)">1220</text>
     </g>
    </g>
    <g id="ytick_6">
     <g id="line2d_23">
      <path d="M 50.65 84.744557 
L 528.39 84.744557 
" clip-path="url(#p9939335196)" style="fill: none; stroke: #b0b0b0; stroke-opacity: 0.2; stroke-width: 0.8; stroke-linecap: square"/>
     </g>
     <g id="line2d_24">
      <g>
       <use xlink:href="#mc3a6f26afe" x="50.65" y="84.744557" style="stroke: #000000; stroke-width: 0.8"/>
      </g>
     </g>
     <g id="text_13">
      <text style="font: 10px 'Noto Sans CJK JP'; text-anchor: end" x="43.65" y="88.724244" transform="rotate(-0 43.65 88.724244)">1230</text>
     </g>
    </g>
    <g id="ytick_7">
     <g id="line2d_25">
      <path d="M 50.65 56.410499 
L 528.39 56.410499 
" clip-path="url(#p9939335196)" style="fill: none; stroke: #b0b0b0; stroke-opacity: 0.2; stroke-width: 0.8; stroke-linecap: square"/>
     </g>
     <g id="line2d_26">
      <g>
       <use xlink:href="#mc3a6f26afe" x="50.65" y="56.410499" style="stroke: #000000; stroke-width: 0.8"/>
      </g>
     </g>
     <g id="text_14">
      <text style="font: 10px 'Noto Sans CJK JP'; text-anchor: end" x="43.65" y="60.390186" transform="rotate(-0 43.65 60.390186)">1240</text>
     </g>
    </g>
    <g id="ytick_8">
     <g id="line2d_27">
      <path d="M 50.65 28.076441 
L 528.39 28.076441 
" clip-path="url(#p9939335196)" style="fill: none; stroke: #b0b0b0; stroke-opacity: 0.2; stroke-width: 0.8; stroke-linecap: square"/>
     </g>
     <g id="line2d_28">
      <g>
       <use xlink:href="#mc3a6f26afe" x="50.65" y="28.076441" style="stroke: #000000; stroke-width: 0.8"/>
      </g>
     </g>
     <g id="text_15">
      <text style="font: 10px 'Noto Sans CJK JP'; text-anchor: end" x="43.65" y="32.056128" transform="rotate(-0 43.65 32.056128)">1250</text>
     </g>
    </g>
    <g id="text_16">
     <text style="font: 10px 'Noto Sans CJK JP'; text-anchor: middle" x="15.159375" y="132.69125" transform="rotate(-90 15.159375 132.69125)">HTTP 요청/초</text>
    </g>
   </g>
   <g id="line2d_29">
    <path d="M 72.365455 121.614537 
L 159.227273 188.149282 
L 246.089091 232.636705 
L 332.950909 133.373322 
L 419.812727 219.131865 
L 506.674545 201.562774 
" clip-path="url(#p9939335196)" style="fill: none; stroke: #1f77b4; stroke-width: 1.5; stroke-linecap: square"/>
    <defs>
     <path id="mf9928bb08a" d="M 0 3 
C 0.795609 3 1.55874 2.683901 2.12132 2.12132 
C 2.683901 1.55874 3 0.795609 3 0 
C 3 -0.795609 2.683901 -1.55874 2.12132 -2.12132 
C 1.55874 -2.683901 0.795609 -3 0 -3 
C -0.795609 -3 -1.55874 -2.683901 -2.12132 -2.12132 
C -2.683901 -1.55874 -3 -0.795609 -3 0 
C -3 0.795609 -2.683901 1.55874 -2.12132 2.12132 
C -1.55874 2.683901 -0.795609 3 0 3 
z
" style="stroke: #1f77b4"/>
    </defs>
    <g clip-path="url(#p9939335196)">
     <use xlink:href="#mf9928bb08a" x="72.365455" y="121.614537" style="fill: #1f77b4; stroke: #1f77b4"/>
     <use xlink:href="#mf9928bb08a" x="159.227273" y="188.149282" style="fill: #1f77b4; stroke: #1f77b4"/>
     <use xlink:href="#mf9928bb08a" x="246.089091" y="232.636705" style="fill: #1f77b4; stroke: #1f77b4"/>
     <use xlink:href="#mf9928bb08a" x="332.950909" y="133.373322" style="fill: #1f77b4; stroke: #1f77b4"/>
     <use xlink:href="#mf9928bb08a" x="419.812727" y="219.131865" style="fill: #1f77b4; stroke: #1f77b4"/>
     <use xlink:href="#mf9928bb08a" x="506.674545" y="201.562774" style="fill: #1f77b4; stroke: #1f77b4"/>
    </g>
   </g>
   <g id="line2d_30">
    <path d="M 72.365455 32.745795 
L 159.227273 109.951023 
L 246.089091 64.904116 
L 332.950909 64.89801 
L 419.812727 130.681772 
L 506.674545 133.892352 
" clip-path="url(#p9939335196)" style="fill: none; stroke: #ff7f0e; stroke-width: 1.5; stroke-linecap: square"/>
    <defs>
     <path id="me6baa93ef3" d="M 0 3 
C 0.795609 3 1.55874 2.683901 2.12132 2.12132 
C 2.683901 1.55874 3 0.795609 3 0 
C 3 -0.795609 2.683901 -1.55874 2.12132 -2.12132 
C 1.55874 -2.683901 0.795609 -3 0 -3 
C -0.795609 -3 -1.55874 -2.683901 -2.12132 -2.12132 
C -2.683901 -1.55874 -3 -0.795609 -3 0 
C -3 0.795609 -2.683901 1.55874 -2.12132 2.12132 
C -1.55874 2.683901 -0.795609 3 0 3 
z
" style="stroke: #ff7f0e"/>
    </defs>
    <g clip-path="url(#p9939335196)">
     <use xlink:href="#me6baa93ef3" x="72.365455" y="32.745795" style="fill: #ff7f0e; stroke: #ff7f0e"/>
     <use xlink:href="#me6baa93ef3" x="159.227273" y="109.951023" style="fill: #ff7f0e; stroke: #ff7f0e"/>
     <use xlink:href="#me6baa93ef3" x="246.089091" y="64.904116" style="fill: #ff7f0e; stroke: #ff7f0e"/>
     <use xlink:href="#me6baa93ef3" x="332.950909" y="64.89801" style="fill: #ff7f0e; stroke: #ff7f0e"/>
     <use xlink:href="#me6baa93ef3" x="419.812727" y="130.681772" style="fill: #ff7f0e; stroke: #ff7f0e"/>
     <use xlink:href="#me6baa93ef3" x="506.674545" y="133.892352" style="fill: #ff7f0e; stroke: #ff7f0e"/>
    </g>
   </g>
   <g id="line2d_31">
    <path d="M 72.365455 121.89683 
L 159.227273 92.05251 
L 246.089091 134.980376 
L 332.950909 133.183526 
L 419.812727 124.636161 
L 506.674545 108.816221 
" clip-path="url(#p9939335196)" style="fill: none; stroke: #2ca02c; stroke-width: 1.5; stroke-linecap: square"/>
    <defs>
     <path id="m5445ca3eb3" d="M 0 3 
C 0.795609 3 1.55874 2.683901 2.12132 2.12132 
C 2.683901 1.55874 3 0.795609 3 0 
C 3 -0.795609 2.683901 -1.55874 2.12132 -2.12132 
C 1.55874 -2.683901 0.795609 -3 0 -3 
C -0.795609 -3 -1.55874 -2.683901 -2.12132 -2.12132 
C -2.683901 -1.55874 -3 -0.795609 -3 0 
C -3 0.795609 -2.683901 1.55874 -2.12132 2.12132 
C -1.55874 2.683901 -0.795609 3 0 3 
z
" style="stroke: #2ca02c"/>
    </defs>
    <g clip-path="url(#p9939335196)">
     <use xlink:href="#m5445ca3eb3" x="72.365455" y="121.89683" style="fill: #2ca02c; stroke: #2ca02c"/>
     <use xlink:href="#m5445ca3eb3" x="159.227273" y="92.05251" style="fill: #2ca02c; stroke: #2ca02c"/>
     <use xlink:href="#m5445ca3eb3" x="246.089091" y="134.980376" style="fill: #2ca02c; stroke: #2ca02c"/>
     <use xlink:href="#m5445ca3eb3" x="332.950909" y="133.183526" style="fill: #2ca02c; stroke: #2ca02c"/>
     <use xlink:href="#m5445ca3eb3" x="419.812727" y="124.636161" style="fill: #2ca02c; stroke: #2ca02c"/>
     <use xlink:href="#m5445ca3eb3" x="506.674545" y="108.816221" style="fill: #2ca02c; stroke: #2ca02c"/>
    </g>
   </g>
   <g id="line2d_32">
    <path d="M 72.365455 89.410743 
L 159.227273 77.698639 
L 246.089091 124.406749 
L 332.950909 132.950569 
L 419.812727 127.470282 
L 506.674545 139.700883 
" clip-path="url(#p9939335196)" style="fill: none; stroke: #d62728; stroke-width: 1.5; stroke-linecap: square"/>
    <defs>
     <path id="m662534df7f" d="M 0 3 
C 0.795609 3 1.55874 2.683901 2.12132 2.12132 
C 2.683901 1.55874 3 0.795609 3 0 
C 3 -0.795609 2.683901 -1.55874 2.12132 -2.12132 
C 1.55874 -2.683901 0.795609 -3 0 -3 
C -0.795609 -3 -1.55874 -2.683901 -2.12132 -2.12132 
C -2.683901 -1.55874 -3 -0.795609 -3 0 
C -3 0.795609 -2.683901 1.55874 -2.12132 2.12132 
C -1.55874 2.683901 -0.795609 3 0 3 
z
" style="stroke: #d62728"/>
    </defs>
    <g clip-path="url(#p9939335196)">
     <use xlink:href="#m662534df7f" x="72.365455" y="89.410743" style="fill: #d62728; stroke: #d62728"/>
     <use xlink:href="#m662534df7f" x="159.227273" y="77.698639" style="fill: #d62728; stroke: #d62728"/>
     <use xlink:href="#m662534df7f" x="246.089091" y="124.406749" style="fill: #d62728; stroke: #d62728"/>
     <use xlink:href="#m662534df7f" x="332.950909" y="132.950569" style="fill: #d62728; stroke: #d62728"/>
     <use xlink:href="#m662534df7f" x="419.812727" y="127.470282" style="fill: #d62728; stroke: #d62728"/>
     <use xlink:href="#m662534df7f" x="506.674545" y="139.700883" style="fill: #d62728; stroke: #d62728"/>
    </g>
   </g>
   <g id="patch_3">
    <path d="M 50.65 242.63125 
L 50.65 22.75125 
" style="fill: none; stroke: #000000; stroke-width: 0.8; stroke-linejoin: miter; stroke-linecap: square"/>
   </g>
   <g id="patch_4">
    <path d="M 528.39 242.63125 
L 528.39 22.75125 
" style="fill: none; stroke: #000000; stroke-width: 0.8; stroke-linejoin: miter; stroke-linecap: square"/>
   </g>
   <g id="patch_5">
    <path d="M 50.65 242.63125 
L 528.39 242.63125 
" style="fill: none; stroke: #000000; stroke-width: 0.8; stroke-linejoin: miter; stroke-linecap: square"/>
   </g>
   <g id="patch_6">
    <path d="M 50.65 22.75125 
L 528.39 22.75125 
" style="fill: none; stroke: #000000; stroke-width: 0.8; stroke-linejoin: miter; stroke-linecap: square"/>
   </g>
   <g id="text_17">
    <text style="font: 12px 'Noto Sans CJK JP'; text-anchor: middle" x="289.52" y="16.75125" transform="rotate(-0 289.52 16.75125)">각 블록의 실제 처리량 · 실행 순서는 정방향/역방향으로 균형화</text>
   </g>
   <g id="legend_1">
    <g id="patch_7">
     <path d="M 535.39 164.69125 
L 703.104063 164.69125 
Q 705.104063 164.69125 705.104063 162.69125 
L 705.104063 102.69125 
Q 705.104063 100.69125 703.104063 100.69125 
L 535.39 100.69125 
Q 533.39 100.69125 533.39 102.69125 
L 533.39 162.69125 
Q 533.39 164.69125 535.39 164.69125 
z
" style="fill: #ffffff; opacity: 0.8; stroke: #cccccc; stroke-linejoin: miter"/>
    </g>
    <g id="line2d_33">
     <path d="M 537.39 109.150625 
L 547.39 109.150625 
L 557.39 109.150625 
" style="fill: none; stroke: #1f77b4; stroke-width: 1.5; stroke-linecap: square"/>
     <g>
      <use xlink:href="#mf9928bb08a" x="547.39" y="109.150625" style="fill: #1f77b4; stroke: #1f77b4"/>
     </g>
    </g>
    <g id="text_18">
     <text style="font: 10px 'Noto Sans CJK JP'; text-anchor: start" x="565.39" y="112.650625" transform="rotate(-0 565.39 112.650625)">원본</text>
    </g>
    <g id="line2d_34">
     <path d="M 537.39 124.400625 
L 547.39 124.400625 
L 557.39 124.400625 
" style="fill: none; stroke: #ff7f0e; stroke-width: 1.5; stroke-linecap: square"/>
     <g>
      <use xlink:href="#me6baa93ef3" x="547.39" y="124.400625" style="fill: #ff7f0e; stroke: #ff7f0e"/>
     </g>
    </g>
    <g id="text_19">
     <text style="font: 10px 'Noto Sans CJK JP'; text-anchor: start" x="565.39" y="127.900625" transform="rotate(-0 565.39 127.900625)">기존 정책</text>
    </g>
    <g id="line2d_35">
     <path d="M 537.39 139.650625 
L 547.39 139.650625 
L 557.39 139.650625 
" style="fill: none; stroke: #2ca02c; stroke-width: 1.5; stroke-linecap: square"/>
     <g>
      <use xlink:href="#m5445ca3eb3" x="547.39" y="139.650625" style="fill: #2ca02c; stroke: #2ca02c"/>
     </g>
    </g>
    <g id="text_20">
     <text style="font: 10px 'Noto Sans CJK JP'; text-anchor: start" x="565.39" y="143.150625" transform="rotate(-0 565.39 143.150625)">응답 헤더 후 IT0/T1 추가</text>
    </g>
    <g id="line2d_36">
     <path d="M 537.39 154.900625 
L 547.39 154.900625 
L 557.39 154.900625 
" style="fill: none; stroke: #d62728; stroke-width: 1.5; stroke-linecap: square"/>
     <g>
      <use xlink:href="#m662534df7f" x="547.39" y="154.900625" style="fill: #d62728; stroke: #d62728"/>
     </g>
    </g>
    <g id="text_21">
     <text style="font: 10px 'Noto Sans CJK JP'; text-anchor: start" x="565.39" y="158.400625" transform="rotate(-0 565.39 158.400625)">응답 헤더 후 IT0/T1 추가의 NOP</text>
    </g>
   </g>
  </g>
 </g>
 <defs>
  <clipPath id="p9939335196">
   <rect x="50.65" y="22.75125" width="477.74" height="219.88"/>
  </clipPath>
 </defs>
</svg>
